<svg width="90" height="24" viewBox="0 0 90 24" fill="none" xmlns="http://www.w3.org/2000/svg">
<path d="M0.66 18L5.076 0.275999H10.968L15.36 18H11.544L8.016 2.544H8.04L4.476 18H0.66ZM3.828 13.896V10.992H12.228V13.896H3.828ZM26.2793 16.488C27.0633 16.568 27.7473 16.72 28.3313 16.944C28.9233 17.16 29.3833 17.484 29.7113 17.916C30.0393 18.34 30.2033 18.908 30.2033 19.62C30.2033 20.444 29.9313 21.144 29.3873 21.72C28.8513 22.304 28.0633 22.748 27.0233 23.052C25.9833 23.356 24.7233 23.508 23.2433 23.508C21.0593 23.508 19.3673 23.192 18.1673 22.56C16.9753 21.936 16.3793 21.1 16.3793 20.052C16.3793 19.756 16.4113 19.488 16.4753 19.248C16.5473 19.016 16.6353 18.816 16.7393 18.648L20.1233 19.14C20.0833 19.196 20.0393 19.28 19.9913 19.392C19.9513 19.512 19.9313 19.66 19.9313 19.836C19.9313 20.26 20.2473 20.576 20.8793 20.784C21.5193 20.992 22.3433 21.096 23.3513 21.096C24.0633 21.096 24.6713 21.044 25.1753 20.94C25.6873 20.844 26.0753 20.7 26.3393 20.508C26.6113 20.316 26.7473 20.096 26.7473 19.848C26.7473 19.488 26.5713 19.252 26.2193 19.14C25.8753 19.028 25.4753 18.948 25.0193 18.9L20.1953 18.408C19.3073 18.32 18.5713 18.064 17.9873 17.64C17.4033 17.216 17.1113 16.644 17.1113 15.924C17.1113 15.476 17.2353 15.068 17.4833 14.7C17.7313 14.324 18.0153 14.016 18.3353 13.776C18.6553 13.528 18.9233 13.372 19.1393 13.308L21.0353 14.268C20.8833 14.292 20.7033 14.388 20.4953 14.556C20.2953 14.724 20.1953 14.92 20.1953 15.144C20.1953 15.368 20.3073 15.56 20.5313 15.72C20.7633 15.88 21.1833 15.988 21.7913 16.044L26.2793 16.488ZM27.5393 5.256H30.8153L29.4833 10.152C29.2353 11.08 28.8673 11.908 28.3793 12.636C27.8913 13.356 27.2393 13.924 26.4233 14.34C25.6153 14.756 24.5953 14.964 23.3633 14.964C22.0673 14.964 20.9433 14.764 19.9913 14.364C19.0473 13.964 18.3193 13.4 17.8073 12.672C17.2953 11.936 17.0393 11.068 17.0393 10.068C17.0393 9.068 17.2993 8.188 17.8193 7.428C18.3473 6.668 19.0633 6.076 19.9673 5.652C20.8793 5.228 21.9113 5.016 23.0633 5.016C23.9353 5.016 24.7313 5.16 25.4513 5.448C26.1793 5.728 26.7633 6.1 27.2033 6.564C27.6513 7.028 27.8833 7.54 27.8993 8.1L27.2153 8.28L27.5393 5.256ZM23.3393 12.24C23.8673 12.24 24.3313 12.156 24.7313 11.988C25.1313 11.812 25.4433 11.56 25.6673 11.232C25.8913 10.896 26.0033 10.492 26.0033 10.02C26.0033 9.556 25.8913 9.16 25.6673 8.832C25.4433 8.504 25.1313 8.252 24.7313 8.076C24.3313 7.9 23.8673 7.812 23.3393 7.812C22.8353 7.812 22.3793 7.904 21.9713 8.088C21.5713 8.264 21.2553 8.52 21.0233 8.856C20.7913 9.184 20.6753 9.584 20.6753 10.056C20.6753 10.52 20.7873 10.916 21.0113 11.244C21.2353 11.564 21.5473 11.812 21.9473 11.988C22.3473 12.156 22.8113 12.24 23.3393 12.24ZM33.5831 12.744V10.284H42.0311L41.6711 10.908C41.6711 10.844 41.6711 10.784 41.6711 10.728C41.6711 10.664 41.6711 10.604 41.6711 10.548C41.6711 10.092 41.5631 9.656 41.3471 9.24C41.1311 8.816 40.7951 8.472 40.3391 8.208C39.8911 7.936 39.3151 7.8 38.6111 7.8C37.9071 7.8 37.2991 7.952 36.7871 8.256C36.2831 8.552 35.8951 8.98 35.6231 9.54C35.3591 10.1 35.2271 10.776 35.2271 11.568C35.2271 12.384 35.3551 13.084 35.6111 13.668C35.8751 14.244 36.2631 14.688 36.7751 15C37.2951 15.312 37.9391 15.468 38.7071 15.468C39.2031 15.468 39.6311 15.424 39.9911 15.336C40.3511 15.24 40.6431 15.12 40.8671 14.976C41.0991 14.832 41.2751 14.672 41.3951 14.496C41.5151 14.32 41.5871 14.148 41.6111 13.98H45.2831C45.2351 14.516 45.0511 15.044 44.7311 15.564C44.4111 16.076 43.9671 16.54 43.3991 16.956C42.8311 17.364 42.1391 17.688 41.3231 17.928C40.5151 18.168 39.5911 18.288 38.5511 18.288C37.1431 18.288 35.9151 18.008 34.8671 17.448C33.8191 16.88 33.0071 16.1 32.4311 15.108C31.8551 14.108 31.5671 12.956 31.5671 11.652C31.5671 10.332 31.8591 9.176 32.4431 8.184C33.0351 7.184 33.8551 6.408 34.9031 5.856C35.9591 5.296 37.1791 5.016 38.5631 5.016C39.9791 5.016 41.2031 5.3 42.2351 5.868C43.2671 6.428 44.0631 7.216 44.6231 8.232C45.1831 9.24 45.4631 10.416 45.4631 11.76C45.4631 11.96 45.4591 12.152 45.4511 12.336C45.4431 12.52 45.4311 12.656 45.4151 12.744H33.5831ZM56.7639 18V12.588C56.7639 12.284 56.7639 12.008 56.7639 11.76C56.7639 11.512 56.7639 11.288 56.7639 11.088C56.7639 10.56 56.6959 10.08 56.5599 9.648C56.4239 9.208 56.1799 8.856 55.8279 8.592C55.4759 8.328 54.9679 8.196 54.3039 8.196C53.7279 8.196 53.2279 8.328 52.8039 8.592C52.3879 8.856 52.0679 9.224 51.8439 9.696C51.6199 10.168 51.5079 10.712 51.5079 11.328L50.4759 10.584C50.4759 9.48 50.7159 8.512 51.1959 7.68C51.6759 6.848 52.3239 6.196 53.1399 5.724C53.9639 5.252 54.8759 5.016 55.8759 5.016C56.9239 5.016 57.7839 5.228 58.4559 5.652C59.1359 6.068 59.6399 6.652 59.9679 7.404C60.3039 8.148 60.4719 9.02 60.4719 10.02C60.4719 10.428 60.4719 10.884 60.4719 11.388C60.4719 11.892 60.4719 12.408 60.4719 12.936V18H56.7639ZM47.7879 18V5.256H51.5079V18H47.7879ZM69.6767 18.288C68.2767 18.288 67.0487 18.008 65.9927 17.448C64.9367 16.88 64.1167 16.092 63.5327 15.084C62.9567 14.076 62.6687 12.912 62.6687 11.592C62.6687 10.256 62.9567 9.1 63.5327 8.124C64.1167 7.14 64.9367 6.376 65.9927 5.832C67.0487 5.288 68.2767 5.016 69.6767 5.016C70.7247 5.016 71.6527 5.172 72.4607 5.484C73.2687 5.788 73.9447 6.192 74.4887 6.696C75.0327 7.2 75.4447 7.752 75.7247 8.352C76.0047 8.952 76.1447 9.548 76.1447 10.14C76.1447 10.148 76.1447 10.164 76.1447 10.188C76.1447 10.204 76.1447 10.22 76.1447 10.236H72.4607C72.4607 10.188 72.4567 10.144 72.4487 10.104C72.4487 10.056 72.4407 10.008 72.4247 9.96C72.3607 9.624 72.2207 9.308 72.0047 9.012C71.7887 8.716 71.4847 8.476 71.0927 8.292C70.7087 8.1 70.2287 8.004 69.6527 8.004C69.0367 8.004 68.4847 8.14 67.9967 8.412C67.5167 8.684 67.1367 9.088 66.8567 9.624C66.5767 10.152 66.4367 10.808 66.4367 11.592C66.4367 12.36 66.5767 13.024 66.8567 13.584C67.1367 14.136 67.5167 14.56 67.9967 14.856C68.4847 15.152 69.0367 15.3 69.6527 15.3C70.2847 15.3 70.8007 15.204 71.2007 15.012C71.6007 14.812 71.9007 14.548 72.1007 14.22C72.3007 13.884 72.4207 13.516 72.4607 13.116H76.1447C76.1447 13.708 76.0047 14.312 75.7247 14.928C75.4527 15.536 75.0447 16.092 74.5007 16.596C73.9647 17.1 73.2927 17.508 72.4847 17.82C71.6767 18.132 70.7407 18.288 69.6767 18.288ZM78.9377 23.508C78.5377 23.508 78.1777 23.492 77.8577 23.46C77.5457 23.436 77.3497 23.408 77.2697 23.376V20.556C77.3737 20.604 77.5537 20.64 77.8097 20.664C78.0737 20.696 78.3537 20.712 78.6497 20.712C79.0417 20.712 79.3937 20.632 79.7057 20.472C80.0257 20.32 80.2977 20.1 80.5217 19.812C80.7537 19.532 80.9337 19.2 81.0617 18.816L81.2777 18.168L76.8857 5.256H80.7617L83.5337 15.708H83.1017L85.7657 5.256H89.5937L85.2137 18.636C84.8857 19.644 84.4817 20.512 84.0017 21.24C83.5217 21.968 82.8817 22.528 82.0817 22.92C81.2817 23.312 80.2337 23.508 78.9377 23.508Z" fill="#391400"/>
</svg>
