<svg width="24" height="25" viewBox="0 0 24 25" fill="none" xmlns="http://www.w3.org/2000/svg">
<path fill-rule="evenodd" clip-rule="evenodd" d="M3 6.5C3 4.84315 4.34315 3.5 6 3.5H8.25C9.90685 3.5 11.25 4.84315 11.25 6.5V8.75C11.25 10.4069 9.90685 11.75 8.25 11.75H6C4.34315 11.75 3 10.4069 3 8.75V6.5ZM6 5C5.17157 5 4.5 5.67157 4.5 6.5V8.75C4.5 9.57843 5.17157 10.25 6 10.25H8.25C9.07843 10.25 9.75 9.57843 9.75 8.75V6.5C9.75 5.67157 9.07843 5 8.25 5H6ZM12.75 6.5C12.75 4.84315 14.0931 3.5 15.75 3.5H18C19.6569 3.5 21 4.84315 21 6.5V8.75C21 10.4069 19.6569 11.75 18 11.75H15.75C14.0931 11.75 12.75 10.4069 12.75 8.75V6.5ZM15.75 5C14.9216 5 14.25 5.67157 14.25 6.5V8.75C14.25 9.57843 14.9216 10.25 15.75 10.25H18C18.8284 10.25 19.5 9.57843 19.5 8.75V6.5C19.5 5.67157 18.8284 5 18 5H15.75ZM3 16.25C3 14.5931 4.34315 13.25 6 13.25H8.25C9.90685 13.25 11.25 14.5931 11.25 16.25V18.5C11.25 20.1569 9.90685 21.5 8.25 21.5H6C4.34315 21.5 3 20.1569 3 18.5V16.25ZM6 14.75C5.17157 14.75 4.5 15.4216 4.5 16.25V18.5C4.5 19.3284 5.17157 20 6 20H8.25C9.07843 20 9.75 19.3284 9.75 18.5V16.25C9.75 15.4216 9.07843 14.75 8.25 14.75H6ZM12.75 16.25C12.75 14.5931 14.0931 13.25 15.75 13.25H18C19.6569 13.25 21 14.5931 21 16.25V18.5C21 20.1569 19.6569 21.5 18 21.5H15.75C14.0931 21.5 12.75 20.1569 12.75 18.5V16.25ZM15.75 14.75C14.9216 14.75 14.25 15.4216 14.25 16.25V18.5C14.25 19.3284 14.9216 20 15.75 20H18C18.8284 20 19.5 19.3284 19.5 18.5V16.25C19.5 15.4216 18.8284 14.75 18 14.75H15.75Z" fill="#999999"/>
</svg>
