<svg width="24" height="25" viewBox="0 0 24 25" fill="none" xmlns="http://www.w3.org/2000/svg">
<path fill-rule="evenodd" clip-rule="evenodd" d="M9.00016 2.75C9.41437 2.75 9.75016 3.08579 9.75016 3.5V5.00565C10.6345 5.019 11.5133 5.05589 12.3858 5.11576C13.2952 5.17816 14.1978 5.2655 15.093 5.37713C15.504 5.42838 15.7956 5.80314 15.7444 6.21417C15.6931 6.6252 15.3184 6.91685 14.9074 6.8656C14.2478 6.78336 13.5841 6.71471 12.9163 6.65993C12.3256 8.96971 11.3062 11.1074 9.94809 12.9834C10.2649 13.3666 10.598 13.736 10.9464 14.0905C11.2367 14.3859 11.2326 14.8607 10.9371 15.1511C10.6417 15.4414 10.1669 15.4373 9.87652 15.1419C9.57364 14.8337 9.28132 14.515 9.00015 14.1866C7.42902 16.022 5.50956 17.5501 3.34438 18.6686C2.97638 18.8587 2.52393 18.7145 2.33382 18.3465C2.14371 17.9785 2.28792 17.526 2.65593 17.3359C4.73772 16.2605 6.57228 14.7737 8.05223 12.9834C7.18614 11.7869 6.45772 10.484 5.89036 9.09774C5.73347 8.71439 5.91705 8.27643 6.3004 8.11954C6.68375 7.96265 7.1217 8.14622 7.2786 8.52958C7.74091 9.65919 8.31972 10.729 9.00015 11.7242C10.065 10.1667 10.8812 8.42604 11.3914 6.55944C10.5993 6.51997 9.80211 6.5 9.00016 6.5C6.99929 6.5 5.02782 6.62433 3.09296 6.8656C2.68193 6.91685 2.30718 6.6252 2.25592 6.21417C2.20467 5.80314 2.49632 5.42838 2.90735 5.37713C4.66129 5.15841 6.44395 5.0329 8.25016 5.00565V3.5C8.25016 3.08579 8.58594 2.75 9.00016 2.75ZM15.7502 9.5C16.0415 9.5 16.3066 9.66878 16.4298 9.93284L21.6798 21.1828C21.855 21.5582 21.6927 22.0045 21.3173 22.1796C20.942 22.3548 20.4957 22.1925 20.3205 21.8172L19.1225 19.25H12.3778L11.1798 21.8172C11.0046 22.1925 10.5583 22.3548 10.183 22.1796C9.80764 22.0045 9.64535 21.5582 9.82052 21.1828L15.0705 9.93284C15.1937 9.66878 15.4588 9.5 15.7502 9.5ZM13.0778 17.75H18.4225L15.7502 12.0235L13.0778 17.75Z" fill="#999999"/>
</svg>
