<svg width="34" height="34" viewBox="0 0 34 34" fill="none" xmlns="http://www.w3.org/2000/svg">
<path fill-rule="evenodd" clip-rule="evenodd" d="M17 5.25C12.8579 5.25 9.50001 8.60786 9.50001 12.75L9.49973 13.8125C9.49973 13.8124 9.49973 13.8126 9.49973 13.8125C9.49968 16.8181 8.53432 19.6002 6.89778 21.8629C8.88001 22.4996 10.9441 22.9539 13.0706 23.2061C14.3586 23.3589 15.6698 23.4375 16.9997 23.4375C18.3299 23.4375 19.6412 23.3589 20.9294 23.2061C23.0557 22.9538 25.1196 22.4995 27.1017 21.8629C25.4651 19.6001 24.4997 16.8182 24.4997 13.8125V12.8116L24.5 12.75C24.5 8.60786 21.1422 5.25 17 5.25ZM7.50002 12.7497C7.50016 7.50315 11.7534 3.25 17 3.25C22.2467 3.25 26.5 7.50329 26.5 12.75C26.5 12.7745 26.4999 12.7991 26.4997 12.8236V13.8125C26.4997 16.8363 27.6406 19.5913 29.5171 21.6742C29.7391 21.9206 29.8245 22.261 29.745 22.5831C29.6655 22.9051 29.4316 23.1667 29.1204 23.2816C26.9193 24.0942 24.6142 24.6918 22.2309 25.0491C22.2435 25.1978 22.25 25.3482 22.25 25.5C22.25 28.3995 19.8995 30.75 17 30.75C14.1005 30.75 11.75 28.3995 11.75 25.5C11.75 25.3483 11.7565 25.1979 11.7692 25.0492C9.38561 24.6919 7.08034 24.0942 4.87904 23.2816C4.56789 23.1667 4.33394 22.9051 4.25448 22.5831C4.17502 22.261 4.26039 21.9206 4.48239 21.6742C6.35883 19.5913 7.49973 16.8363 7.49973 13.8125L7.50002 12.7497C7.50002 12.7498 7.50002 12.7496 7.50002 12.7497ZM13.7567 25.2892C13.7523 25.3588 13.75 25.4291 13.75 25.5C13.75 27.2949 15.2051 28.75 17 28.75C18.7949 28.75 20.25 27.2949 20.25 25.5C20.25 25.4291 20.2478 25.3588 20.2433 25.2891C19.1751 25.3873 18.0931 25.4375 16.9997 25.4375C15.9065 25.4375 14.8248 25.3874 13.7567 25.2892Z" fill="white"/>
</svg>
