<svg width="30" height="30" viewBox="0 0 30 30" fill="none" xmlns="http://www.w3.org/2000/svg">
<path fill-rule="evenodd" clip-rule="evenodd" d="M15 4.5C9.20101 4.5 4.5 9.20101 4.5 15C4.5 20.799 9.20101 25.5 15 25.5C20.799 25.5 25.5 20.799 25.5 15C25.5 9.20101 20.799 4.5 15 4.5ZM3 15C3 8.37258 8.37258 3 15 3C21.6274 3 27 8.37258 27 15C27 21.6274 21.6274 27 15 27C8.37258 27 3 21.6274 3 15ZM12.9375 11.5871V18.4129L19.0807 15L12.9375 11.5871ZM11.4375 11.1091C11.4375 10.1799 12.4358 9.59247 13.2481 10.0438L20.2517 13.9346C21.0875 14.399 21.0875 15.601 20.2517 16.0654L13.2481 19.9562C12.4358 20.4075 11.4375 19.8201 11.4375 18.8909V11.1091Z" fill="#E4E4E7"/>
</svg>
