<?xml version="1.0" encoding="UTF-8"?>
<!DOCTYPE svg PUBLIC "-//W3C//DTD SVG 1.1//EN" "http://www.w3.org/Graphics/SVG/1.1/DTD/svg11.dtd">
<svg xmlns="http://www.w3.org/2000/svg" version="1.1" width="512px" height="512px" style="shape-rendering:geometricPrecision; text-rendering:geometricPrecision; image-rendering:optimizeQuality; fill-rule:evenodd; clip-rule:evenodd" xmlns:xlink="http://www.w3.org/1999/xlink">
<g><path style="opacity:1" fill="#E50000" d="M 97.5,-0.5 C 202.833,-0.5 308.167,-0.5 413.5,-0.5C 457.114,7.26965 487.614,31.603 505,72.5C 507.668,80.8425 509.834,89.1758 511.5,97.5C 511.5,202.833 511.5,308.167 511.5,413.5C 503.73,457.114 479.397,487.614 438.5,505C 430.158,507.668 421.824,509.834 413.5,511.5C 308.167,511.5 202.833,511.5 97.5,511.5C 53.8861,503.73 23.3861,479.397 6,438.5C 3.33232,430.158 1.16565,421.824 -0.5,413.5C -0.5,308.167 -0.5,202.833 -0.5,97.5C 7.26965,53.8861 31.603,23.3861 72.5,6C 80.8385,3.33329 89.1718,1.16662 97.5,-0.5 Z"/></g>
<g><path style="opacity:1" fill="#fefefd" d="M 164.5,105.5 C 194.812,135.479 225.146,165.479 255.5,195.5C 285.82,165.68 315.986,135.68 346,105.5C 365.833,125.333 385.667,145.167 405.5,165C 375.32,195.014 345.32,225.18 315.5,255.5C 345.32,285.82 375.32,315.986 405.5,346C 385.667,365.833 365.833,385.667 346,405.5C 315.986,375.32 285.82,345.32 255.5,315.5C 225.18,345.32 195.014,375.32 165,405.5C 145.167,385.667 125.333,365.833 105.5,346C 135.68,315.986 165.68,285.82 195.5,255.5C 165.68,225.18 135.68,195.014 105.5,165C 125.368,145.299 145.035,125.465 164.5,105.5 Z"/></g>
</svg>
