<svg width="24" height="25" viewBox="0 0 24 25" fill="none" xmlns="http://www.w3.org/2000/svg">
<path fill-rule="evenodd" clip-rule="evenodd" d="M10.7874 3.71068C11.2357 2.63274 12.7627 2.63273 13.2111 3.71068L15.2931 8.7164L20.6972 9.14964C21.8609 9.24293 22.3328 10.6952 21.4461 11.4547L17.3288 14.9817L18.5867 20.2551C18.8576 21.3908 17.6222 22.2883 16.6259 21.6798L11.9992 18.8538L7.37256 21.6798C6.37624 22.2883 5.14084 21.3908 5.41173 20.2551L6.66964 14.9817L2.5523 11.4547C1.66566 10.6952 2.13753 9.24294 3.30127 9.14964L8.70536 8.7164L10.7874 3.71068ZM11.9992 4.70296L10.0464 9.39818C9.85735 9.85262 9.42998 10.1631 8.93938 10.2024L3.8705 10.6088L7.73246 13.917C8.10624 14.2372 8.26948 14.7396 8.15528 15.2183L6.97539 20.1647L11.3151 17.514C11.7351 17.2575 12.2633 17.2575 12.6834 17.514L17.023 20.1647L15.8431 15.2183C15.7289 14.7396 15.8922 14.2372 16.266 13.917L20.1279 10.6088L15.059 10.2024C14.5684 10.1631 14.1411 9.85262 13.9521 9.39818L11.9992 4.70296Z" fill="#999999"/>
</svg>
