<svg width="24" height="25" viewBox="0 0 24 25" fill="none" xmlns="http://www.w3.org/2000/svg">
<path fill-rule="evenodd" clip-rule="evenodd" d="M6.75 2.75C7.16421 2.75 7.5 3.08579 7.5 3.5V5H16.5V3.5C16.5 3.08579 16.8358 2.75 17.25 2.75C17.6642 2.75 18 3.08579 18 3.5V5H18.75C20.4069 5 21.75 6.34315 21.75 8V19.25C21.75 20.9069 20.4069 22.25 18.75 22.25H5.25C3.59315 22.25 2.25 20.9069 2.25 19.25V8C2.25 6.34315 3.59315 5 5.25 5H6V3.5C6 3.08579 6.33579 2.75 6.75 2.75ZM5.25 6.5C4.42157 6.5 3.75 7.17157 3.75 8V9.15135C4.19126 8.89609 4.70357 8.75 5.25 8.75H18.75C19.2964 8.75 19.8087 8.89609 20.25 9.15135V8C20.25 7.17157 19.5784 6.5 18.75 6.5H5.25ZM20.25 11.75C20.25 10.9216 19.5784 10.25 18.75 10.25H5.25C4.42157 10.25 3.75 10.9216 3.75 11.75V19.25C3.75 20.0784 4.42157 20.75 5.25 20.75H18.75C19.5784 20.75 20.25 20.0784 20.25 19.25V11.75Z" fill="#999999"/>
</svg>
