<svg width="34" height="34" viewBox="0 0 34 34" fill="none" xmlns="http://www.w3.org/2000/svg">
<path fill-rule="evenodd" clip-rule="evenodd" d="M14.875 5.25C9.55926 5.25 5.25 9.55926 5.25 14.875C5.25 20.1907 9.55926 24.5 14.875 24.5C17.5331 24.5 19.938 23.4238 21.6809 21.6809C23.4238 19.938 24.5 17.5331 24.5 14.875C24.5 9.55926 20.1907 5.25 14.875 5.25ZM3.25 14.875C3.25 8.45469 8.45469 3.25 14.875 3.25C21.2953 3.25 26.5 8.45469 26.5 14.875C26.5 17.7247 25.4736 20.3362 23.7719 22.3577L30.4571 29.0429C30.8476 29.4334 30.8476 30.0666 30.4571 30.4571C30.0666 30.8476 29.4334 30.8476 29.0429 30.4571L22.3577 23.7719C20.3362 25.4736 17.7247 26.5 14.875 26.5C8.45469 26.5 3.25 21.2953 3.25 14.875Z" fill="white"/>
</svg>
