<svg width="25" height="24" viewBox="0 0 25 24" fill="none" xmlns="http://www.w3.org/2000/svg">
<path d="M6.31641 4.65724C6.6935 4.55472 7.09029 4.5 7.49986 4.5H17.9999C18.4094 4.5 18.8062 4.55472 19.1833 4.65724C18.6906 3.67454 17.674 3 16.4999 3H8.99986C7.8257 3 6.8091 3.67454 6.31641 4.65724Z" fill="#999999"/>
<path d="M3 12C3 10.3431 4.34315 9 6 9H19.5C21.1569 9 22.5 10.3431 22.5 12V18C22.5 19.6569 21.1569 21 19.5 21H6C4.34315 21 3 19.6569 3 18V12Z" fill="#999999"/>
<path d="M5.99986 7.5C5.59029 7.5 5.1935 7.55472 4.81641 7.65724C5.3091 6.67454 6.3257 6 7.49986 6H17.9999C19.174 6 20.1906 6.67454 20.6833 7.65724C20.3062 7.55472 19.9094 7.5 19.4999 7.5H5.99986Z" fill="#999999"/>
</svg>
