<svg width="29" height="28" viewBox="0 0 29 28" fill="none" xmlns="http://www.w3.org/2000/svg">
<path fill-rule="evenodd" clip-rule="evenodd" d="M14.375 5.03918L9.08211 10.3321C8.89457 10.5196 8.64022 10.625 8.375 10.625H5.76056C5.08399 10.625 4.59335 11.0052 4.46519 11.4705C4.24365 12.2747 4.125 13.1227 4.125 14C4.125 14.8772 4.24365 15.7252 4.46519 16.5294C4.59335 16.9947 5.08399 17.375 5.76056 17.375H8.375C8.64022 17.375 8.89457 17.4803 9.08211 17.6679L14.375 22.9608V5.03918ZM13.1742 3.41158C14.3554 2.23039 16.375 3.06696 16.375 4.7374V23.2625C16.375 24.933 14.3554 25.7695 13.1742 24.5884L7.96079 19.375H5.76056C4.38534 19.375 2.95376 18.5735 2.53701 17.0606C2.26825 16.085 2.125 15.0584 2.125 14C2.125 12.9415 2.26825 11.915 2.53701 10.9393C2.95376 9.42647 4.38534 8.62497 5.76056 8.62497H7.96079L13.1742 3.41158L13.8813 4.11868L13.8883 4.12568M13.1742 3.41158L13.8813 4.11868L13.1742 3.41158ZM22.0926 5.86818C22.4831 5.47765 23.1163 5.47765 23.5068 5.86818C27.9978 10.3592 27.9978 17.6406 23.5068 22.1316C23.1163 22.5222 22.4831 22.5222 22.0926 22.1316C21.7021 21.7411 21.7021 21.1079 22.0926 20.7174C25.8026 17.0074 25.8026 10.9924 22.0926 7.28239C21.7021 6.89187 21.7021 6.2587 22.0926 5.86818ZM18.9993 8.96187C19.3898 8.57134 20.023 8.57134 20.4135 8.96187C23.196 11.7444 23.196 16.2557 20.4135 19.0381C20.023 19.4287 19.3898 19.4287 18.9993 19.0381C18.6088 18.6476 18.6088 18.0144 18.9993 17.6239C21.0008 15.6225 21.0008 12.3775 18.9993 10.3761C18.6088 9.98555 18.6088 9.35239 18.9993 8.96187Z" fill="white"/>
</svg>
