<svg width="106" height="20" viewBox="0 0 106 20" fill="none" xmlns="http://www.w3.org/2000/svg">
<path d="M3.432 19L0.84 1.3H4.668L6.552 18.196L6.012 18.172L9.012 1.3H13.656L16.644 18.172L16.104 18.196L17.988 1.3H21.816L19.224 19H13.512L11.148 3.88H11.532L9.144 19H3.432ZM24.7941 13.744V11.284H33.2421L32.8821 11.908C32.8821 11.844 32.8821 11.784 32.8821 11.728C32.8821 11.664 32.8821 11.604 32.8821 11.548C32.8821 11.092 32.7741 10.656 32.5581 10.24C32.3421 9.816 32.0061 9.472 31.5501 9.208C31.1021 8.936 30.5261 8.8 29.8221 8.8C29.1181 8.8 28.5101 8.952 27.9981 9.256C27.4941 9.552 27.1061 9.98 26.8341 10.54C26.5701 11.1 26.4381 11.776 26.4381 12.568C26.4381 13.384 26.5661 14.084 26.8221 14.668C27.0861 15.244 27.4741 15.688 27.9861 16C28.5061 16.312 29.1501 16.468 29.9181 16.468C30.4141 16.468 30.8421 16.424 31.2021 16.336C31.5621 16.24 31.8541 16.12 32.0781 15.976C32.3101 15.832 32.4861 15.672 32.6061 15.496C32.7261 15.32 32.7981 15.148 32.8221 14.98H36.4941C36.4461 15.516 36.2621 16.044 35.9421 16.564C35.6221 17.076 35.1781 17.54 34.6101 17.956C34.0421 18.364 33.3501 18.688 32.5341 18.928C31.7261 19.168 30.8021 19.288 29.7621 19.288C28.3541 19.288 27.1261 19.008 26.0781 18.448C25.0301 17.88 24.2181 17.1 23.6421 16.108C23.0661 15.108 22.7781 13.956 22.7781 12.652C22.7781 11.332 23.0701 10.176 23.6541 9.184C24.2461 8.184 25.0661 7.408 26.1141 6.856C27.1701 6.296 28.3901 6.016 29.7741 6.016C31.1901 6.016 32.4141 6.3 33.4461 6.868C34.4781 7.428 35.2741 8.216 35.8341 9.232C36.3941 10.24 36.6741 11.416 36.6741 12.76C36.6741 12.96 36.6701 13.152 36.6621 13.336C36.6541 13.52 36.6421 13.656 36.6261 13.744H24.7941ZM46.6669 19.276C45.6589 19.276 44.7349 19.008 43.8949 18.472C43.0549 17.936 42.3829 17.212 41.8789 16.3C41.3749 15.38 41.1229 14.348 41.1229 13.204C41.1229 13.172 41.1229 13.144 41.1229 13.12C41.1229 13.088 41.1229 13.052 41.1229 13.012L42.7309 12.976C42.7309 13 42.7309 13.024 42.7309 13.048C42.7309 13.072 42.7309 13.096 42.7309 13.12C42.7309 13.712 42.8749 14.232 43.1629 14.68C43.4509 15.12 43.8229 15.46 44.2789 15.7C44.7349 15.94 45.2109 16.06 45.7069 16.06C46.5229 16.06 47.2309 15.78 47.8309 15.22C48.4389 14.652 48.7429 13.768 48.7429 12.568C48.7429 11.368 48.4429 10.496 47.8429 9.952C47.2429 9.4 46.5309 9.124 45.7069 9.124C45.2109 9.124 44.7349 9.244 44.2789 9.484C43.8229 9.716 43.4509 10.048 43.1629 10.48C42.8749 10.912 42.7309 11.428 42.7309 12.028L41.1229 11.932C41.1229 10.78 41.3749 9.764 41.8789 8.884C42.3829 7.996 43.0549 7.3 43.8949 6.796C44.7349 6.284 45.6589 6.028 46.6669 6.028C47.6989 6.028 48.6629 6.28 49.5589 6.784C50.4549 7.288 51.1789 8.028 51.7309 9.004C52.2909 9.98 52.5709 11.168 52.5709 12.568C52.5709 14.032 52.2989 15.264 51.7549 16.264C51.2109 17.256 50.4909 18.008 49.5949 18.52C48.6989 19.024 47.7229 19.276 46.6669 19.276ZM38.9989 19V0.243999H42.7309V19H38.9989ZM56.3672 19V9.136H53.7152V6.256H56.3672V5.38C56.3672 4.532 56.4792 3.808 56.7032 3.208C56.9352 2.6 57.2472 2.096 57.6392 1.696C58.0312 1.288 58.4712 0.967999 58.9592 0.735999C59.4552 0.495999 59.9632 0.327999 60.4832 0.231998C61.0112 0.127999 61.5232 0.0759997 62.0192 0.0759997C62.5472 0.0759997 62.9392 0.107999 63.1952 0.171999C63.4592 0.227999 63.6352 0.276 63.7232 0.316V3.208C63.6272 3.176 63.4552 3.14 63.2072 3.1C62.9672 3.06 62.7072 3.04 62.4272 3.04C61.9632 3.04 61.5792 3.1 61.2752 3.22C60.9712 3.34 60.7312 3.516 60.5552 3.748C60.3792 3.972 60.2552 4.24 60.1832 4.552C60.1112 4.856 60.0752 5.188 60.0752 5.548V6.256H63.4952V9.136H60.0752V19H56.3672ZM69.2415 0.243999V19H65.5695V0.243999H69.2415ZM78.5938 19.276C77.2178 19.276 76.0058 18.992 74.9578 18.424C73.9098 17.856 73.0898 17.076 72.4978 16.084C71.9138 15.084 71.6218 13.932 71.6218 12.628C71.6218 11.332 71.9138 10.188 72.4978 9.196C73.0898 8.196 73.9098 7.42 74.9578 6.868C76.0058 6.308 77.2178 6.028 78.5938 6.028C79.9698 6.028 81.1818 6.308 82.2298 6.868C83.2778 7.42 84.0938 8.196 84.6778 9.196C85.2698 10.188 85.5658 11.332 85.5658 12.628C85.5658 13.932 85.2698 15.084 84.6778 16.084C84.0938 17.076 83.2778 17.856 82.2298 18.424C81.1818 18.992 79.9698 19.276 78.5938 19.276ZM78.5938 16.324C79.2418 16.324 79.8058 16.172 80.2858 15.868C80.7658 15.564 81.1378 15.136 81.4018 14.584C81.6658 14.024 81.7978 13.372 81.7978 12.628C81.7978 11.884 81.6658 11.24 81.4018 10.696C81.1378 10.144 80.7658 9.72 80.2858 9.424C79.8058 9.128 79.2418 8.98 78.5938 8.98C77.9538 8.98 77.3898 9.128 76.9018 9.424C76.4218 9.72 76.0498 10.144 75.7858 10.696C75.5218 11.24 75.3898 11.884 75.3898 12.628C75.3898 13.372 75.5218 14.024 75.7858 14.584C76.0498 15.136 76.4218 15.564 76.9018 15.868C77.3898 16.172 77.9538 16.324 78.5938 16.324ZM97.9037 19L95.2397 6.256H97.9517L100.628 17.944L100.016 17.968L101.684 6.256H105.524L102.98 19H97.9037ZM89.0477 19L86.5037 6.256H90.3437L92.0117 17.968L91.4117 17.944L94.0637 6.256H96.7757L94.1357 19H89.0477Z" fill="#391400"/>
</svg>
