<svg width="117" height="35" viewBox="0 0 117 35" fill="none" xmlns="http://www.w3.org/2000/svg">
<path d="M75.3196 29L84.9786 32L93.1124 24L103.28 31L113.955 29L109.38 14.5L93.1124 19.5L83.9618 14.5L74.3029 16L75.3196 29Z" fill="#F1A501"/>
<path d="M0 24.064V21.902L6.22037 20.798V23.788C6.25155 25.4134 6.67248 26.64 7.48315 27.468C8.32501 28.2654 9.43189 28.664 10.8038 28.664C12.1445 28.664 13.2047 28.2347 13.9841 27.376C14.7948 26.5174 15.2002 25.3674 15.2002 23.926V1.38604H21.6544V23.926C21.6544 26.9314 20.641 29.4767 18.6143 31.562C16.5877 33.6474 13.9997 34.69 10.8506 34.69C7.57669 34.69 4.942 33.724 2.94649 31.792C0.982164 29.8294 0 27.2534 0 24.064Z" fill="black"/>
<path d="M23.1375 27.836C23.1375 25.904 23.7767 24.3554 25.055 23.19C26.3334 22.0247 27.986 21.2887 30.0126 20.982L35.6718 20.154C36.8254 20.0007 37.4023 19.464 37.4023 18.544C37.4023 17.6854 37.0593 16.98 36.3733 16.428C35.7185 15.876 34.7676 15.6 33.5204 15.6C32.2108 15.6 31.1663 15.9527 30.3868 16.658C29.6385 17.3634 29.2176 18.2374 29.124 19.28L23.6052 18.13C23.8234 16.1674 24.8056 14.4347 26.5517 12.932C28.2977 11.4294 30.6051 10.678 33.4736 10.678C36.9034 10.678 39.4289 11.4907 41.0503 13.116C42.6716 14.7107 43.4823 16.7654 43.4823 19.28V30.412C43.4823 31.7614 43.5759 32.9574 43.7629 34H38.057C37.9011 33.3254 37.8232 32.4207 37.8232 31.286C36.3577 33.5247 34.0972 34.644 31.0416 34.644C28.6719 34.644 26.7544 33.9694 25.2889 32.62C23.8546 31.2707 23.1375 29.676 23.1375 27.836ZM32.3511 30.09C33.8166 30.09 35.017 29.6914 35.9524 28.894C36.919 28.066 37.4023 26.7167 37.4023 24.846V23.834L32.2108 24.616C30.3088 24.892 29.3579 25.8427 29.3579 27.468C29.3579 28.204 29.6229 28.8327 30.1529 29.354C30.683 29.8447 31.4157 30.09 32.3511 30.09Z" fill="black"/>
<path d="M67.8544 0.696045V29.906C67.8544 31.4087 67.9168 32.7734 68.0415 34H62.1018C61.9459 33.2334 61.8679 32.3594 61.8679 31.378C61.3379 32.3287 60.496 33.0954 59.3424 33.678C58.2199 34.2607 56.9103 34.552 55.4137 34.552C52.1398 34.552 49.4428 33.4327 47.3226 31.194C45.2335 28.9247 44.189 26.0727 44.189 22.638C44.189 19.2954 45.2179 16.4894 47.2758 14.22C49.3648 11.9507 52.0151 10.816 55.2266 10.816C58.5317 10.816 60.6987 11.7514 61.7276 13.622V0.696045H67.8544ZM50.4561 22.638C50.4561 24.6314 50.9862 26.2107 52.0463 27.376C53.1064 28.5107 54.4783 29.078 56.162 29.078C57.8146 29.078 59.1709 28.4954 60.231 27.33C61.2911 26.1647 61.8212 24.5854 61.8212 22.592C61.8212 20.6294 61.2911 19.096 60.231 17.992C59.1709 16.8574 57.8146 16.29 56.162 16.29C54.5095 16.29 53.1376 16.8574 52.0463 17.992C50.9862 19.1267 50.4561 20.6754 50.4561 22.638Z" fill="black"/>
<path d="M77.0345 27.422C78.1881 28.5567 79.5756 29.124 81.197 29.124C82.8183 29.124 84.1902 28.5567 85.3127 27.422C86.4664 26.2874 87.0432 24.708 87.0432 22.684C87.0432 20.66 86.4664 19.0807 85.3127 17.946C84.1902 16.8114 82.8183 16.244 81.197 16.244C79.5756 16.244 78.1881 16.8114 77.0345 17.946C75.912 19.0807 75.3508 20.66 75.3508 22.684C75.3508 24.708 75.912 26.2874 77.0345 27.422ZM72.5446 14.082C74.8519 11.8127 77.736 10.678 81.197 10.678C84.6579 10.678 87.5265 11.8127 89.8026 14.082C92.1099 16.3514 93.2636 19.2187 93.2636 22.684C93.2636 26.1494 92.1099 29.0167 89.8026 31.286C87.5265 33.5554 84.6579 34.69 81.197 34.69C77.736 34.69 74.8519 33.5554 72.5446 31.286C70.2685 29.0167 69.1304 26.1494 69.1304 22.684C69.1304 19.2187 70.2685 16.3514 72.5446 14.082Z" fill="black"/>
<path d="M100.606 27.422C101.759 28.5567 103.147 29.124 104.768 29.124C106.39 29.124 107.761 28.5567 108.884 27.422C110.038 26.2874 110.614 24.708 110.614 22.684C110.614 20.66 110.038 19.0807 108.884 17.946C107.761 16.8114 106.39 16.244 104.768 16.244C103.147 16.244 101.759 16.8114 100.606 17.946C99.4832 19.0807 98.922 20.66 98.922 22.684C98.922 24.708 99.4832 26.2874 100.606 27.422ZM96.1158 14.082C98.4231 11.8127 101.307 10.678 104.768 10.678C108.229 10.678 111.098 11.8127 113.374 14.082C115.681 16.3514 116.835 19.2187 116.835 22.684C116.835 26.1494 115.681 29.0167 113.374 31.286C111.098 33.5554 108.229 34.69 104.768 34.69C101.307 34.69 98.4231 33.5554 96.1158 31.286C93.8397 29.0167 92.7016 26.1494 92.7016 22.684C92.7016 19.2187 93.8397 16.3514 96.1158 14.082Z" fill="black"/>
</svg>
