<svg width="94" height="35" viewBox="0 0 94 35" fill="none" xmlns="http://www.w3.org/2000/svg">
<path fill-rule="evenodd" clip-rule="evenodd" d="M16.3292 12.9819C11.1005 9.4553 6.18797 5.4842 1.64536 1.11208L1.64587 1.11155C1.16893 0.665178 0.284137 1.30609 0.704624 1.85767C5.23992 7.61519 10.761 12.5187 17.0153 16.3441C28.0148 23.2593 40.4572 27.5891 53.418 29.0118C59.9256 29.7511 66.5045 29.7413 73.0259 28.9826C76.5245 28.5421 79.9925 27.8896 83.4109 27.0297L83.4691 26.9892C84.8874 26.0038 86.3075 25.0233 87.7327 24.0505C88.6215 24.6668 89.7521 23.7617 89.4059 22.914C89.953 22.5442 90.5011 22.1757 91.0504 21.8086L92.1248 24.3481C89.2651 25.3939 86.3564 26.2888 83.4109 27.0297L79.9107 29.4677C80.1516 29.3998 80.4145 29.4612 80.5989 29.6393C80.8245 29.8572 80.8797 30.1985 80.7349 30.4803C80.1873 31.4204 79.5633 32.2768 78.9321 33.1432C78.7195 33.435 78.506 33.728 78.2944 34.0257L75.9795 32.3323C75.5608 32.7986 75.4717 33.4951 75.8005 34.055C76.1967 34.7294 77.0581 34.9647 77.7516 34.5877C79.0784 33.8216 80.3457 32.9556 81.5424 31.9973L85.1422 29.4593C87.5979 27.7319 90.037 25.9801 92.4597 24.2039C93.0506 23.8344 93.2921 23.0942 93.0304 22.4545C92.7639 21.812 92.059 21.4733 91.3856 21.6642C90.6338 21.9609 89.8777 22.2449 89.1176 22.5163C87.6348 21.1307 86.01 19.9054 84.2701 18.8608C83.3593 18.3283 82.4132 17.8588 81.4383 17.4554C80.6599 17.0104 79.7692 16.8006 78.8739 16.8512C78.6081 16.9268 78.3922 17.1213 78.2894 17.3779C78.1865 17.6344 78.2083 17.9241 78.3484 18.1624C78.9457 18.7879 79.6808 19.2654 80.4951 19.5568C81.2632 19.9479 82.0142 20.3745 82.766 20.8015C82.8286 20.8371 82.8911 20.8726 82.9536 20.9081C84.2583 21.6438 85.5223 22.4489 86.7402 23.3198C81.4615 25.0043 76.0098 26.0871 70.4897 26.5441C57.7937 27.658 45.0391 25.9403 33.1467 21.515C27.2333 19.3111 21.5923 16.4489 16.3292 12.9819ZM78.351 30.4933C78.7925 30.1885 79.2422 29.8956 79.6995 29.6148L79.9107 29.4677C79.8569 29.4829 79.8042 29.5045 79.7537 29.5327C79.2672 29.836 78.8042 30.1593 78.351 30.4933ZM78.351 30.4933C77.5265 31.0625 76.7304 31.673 75.9661 32.3224L75.9795 32.3323C76.0653 32.2368 76.1648 32.151 76.2774 32.078C76.5604 31.8637 76.839 31.6481 77.1165 31.4333C77.5268 31.1157 77.9348 30.8 78.351 30.4933Z" fill="#E7C4B2"/>
</svg>
