<svg width="274" height="96" viewBox="0 0 274 96" fill="none" xmlns="http://www.w3.org/2000/svg">
<path fill-rule="evenodd" clip-rule="evenodd" d="M271.41 20.5809L271.575 20.535C272.974 20.1658 272.179 18.3243 271.013 18.311C270.564 18.3051 270.243 18.4532 270.034 18.6891C270.182 19.1519 270.314 19.6201 270.429 20.093L270.706 19.0777L272.066 19.9365L271.41 20.5809ZM266.477 9.79824L266.839 10.7075L268.887 15.8591C269.34 16.773 269.723 17.7191 270.034 18.6891C269.379 19.4266 269.813 21.0211 270.82 21.4464C271.647 21.7306 272.56 21.4066 273.022 20.665C273.593 19.7454 273.624 18.5901 273.106 17.6404C272.384 15.674 271.625 13.7179 270.865 11.7616C270.463 10.7251 270.061 9.68846 269.664 8.65021C269.513 8.25255 269.362 7.85437 269.212 7.45609C268.927 6.70288 268.642 5.94925 268.352 5.19793C268.651 4.40103 268.939 3.59893 269.216 2.79187C269.487 2.09287 269.326 1.30599 268.805 0.776922C268.284 0.247849 267.498 0.0733599 266.791 0.330136C260.784 1.90936 254.884 3.88823 249.133 6.25334C248.441 6.55556 248.065 7.31019 248.244 8.03582C248.423 8.76146 249.105 9.24439 249.854 9.17655C254.709 8.10287 259.505 6.77551 264.223 5.2003C264.284 5.05285 264.344 4.90528 264.404 4.75759C264.439 4.873 264.478 4.98721 264.523 5.09985C264.423 5.13344 264.323 5.16693 264.223 5.2003C263.677 6.52538 263.106 7.84039 262.501 9.13925C253.996 29.7516 236.961 45.7729 215.828 53.0354C206.358 55.9113 196.287 55.9815 186.849 53.2375C181.465 51.5662 176.522 48.9255 171.578 46.2839C166.75 43.7048 161.921 41.1248 156.678 39.445C138.089 33.6747 117.803 36.2064 101.02 46.3912C92.0337 52.5055 84.1689 60.1239 77.7806 68.9027C71.5357 77.9492 62.9462 85.1513 52.9432 89.7284C35.1751 96.1223 15.4289 90.9236 3.37672 76.6788C2.81951 75.9943 1.8131 75.8785 1.0989 76.4167C0.384697 76.9549 0.218608 77.9542 0.722982 78.6785C2.12709 80.5742 3.70753 82.3328 5.44369 83.9315C19.7298 96.6243 40.3173 99.573 57.8662 91.4398C67.831 85.5543 76.3881 77.5546 82.9203 68.018C86.5128 63.3459 90.5346 59.0158 94.9324 55.0849C98.7205 51.8641 102.892 49.1226 107.349 46.9238C116.26 42.5497 126.025 40.2348 135.91 40.1533C145.981 40.1265 155.877 42.5317 164.752 47.163C166.482 48.0438 168.191 48.9652 169.9 49.8869C173.404 51.7755 176.908 53.6648 180.588 55.2061C185.36 57.215 190.423 58.4749 195.599 58.9411C205.767 59.7199 215.998 57.8879 225.317 53.6198C243.709 44.0859 258.217 28.5667 266.477 9.79824ZM267.908 3.91386C267.851 3.72092 267.78 3.534 267.695 3.35444L268.155 3.82332C268.073 3.85359 267.99 3.88375 267.908 3.91386ZM265.925 1.55187C265.852 1.51549 265.777 1.48131 265.7 1.44948C265.712 1.41903 265.723 1.38861 265.735 1.35815L265.925 1.55187Z" fill="#E7C4B2"/>
</svg>
