<svg width="57" height="17" viewBox="0 0 57 17" fill="none" xmlns="http://www.w3.org/2000/svg">
<path d="M0.989879 6.14369L9.21269 10.6612L4.8878 9.82782C6.884 11.0882 9.66078 12.4256 13.4077 13.8494L22.027 13.6698L17.456 15.2453C19.7095 15.8879 22.3004 16.367 25.0163 16.6094L29.9944 13.5952L27.2474 16.7648C30.0503 16.8829 32.9153 16.7648 35.625 16.3298C38.467 15.8779 41.1413 15.0719 43.3432 13.8059L43.9224 16.7219C45.2387 15.0924 46.0348 13.328 46.4151 11.3592L47.8644 14.0887C48.8501 12.1534 49.0185 10.4325 48.4704 8.35554C51.2751 7.02122 53.7828 5.20339 56.3097 3.41725L55.3589 2.08107C40.8137 13.9737 23.0276 13.0421 10.8354 8.31763L11.4867 6.80867C22.4372 10.985 34.034 11.1466 45.3512 5.9821C44.2325 4.85101 42.9958 3.88771 41.7155 3.12951L37.6262 6.6098L40.2612 2.34644C39.3352 1.91762 38.4154 1.59445 37.5143 1.38936L36.0973 5.37927L36.2216 1.17806C35.3267 1.07862 34.469 1.11591 33.6673 1.29614C28.826 2.35887 23.9163 3.31595 17.571 1.88033L19.4043 5.7273L15.1783 1.2402C14.1093 0.892176 12.9223 0.587651 11.9404 0.438496L14.7805 3.77585L9.04427 0.227193C8.32335 0.227193 7.60865 0.270696 6.92502 0.345274C4.48633 0.633641 2.33974 1.32597 1.22294 2.7908C0.65801 3.51731 0.436139 4.50981 0.723885 5.47746C0.798463 5.71362 0.894792 5.95289 0.989879 6.14369Z" fill="url(#paint0_linear_1_11148)"/>
<defs>
<linearGradient id="paint0_linear_1_11148" x1="31.9421" y1="38.5382" x2="-0.460991" y2="0.742955" gradientUnits="userSpaceOnUse">
<stop offset="0.270833" stop-color="#A3A3A3"/>
<stop offset="0.412103" stop-color="#CCCCCC"/>
<stop offset="0.551716" stop-color="white"/>
<stop offset="0.677083" stop-color="#CCCCCC"/>
<stop offset="0.833333" stop-color="#A3A3A3"/>
</linearGradient>
</defs>
</svg>
