<svg width="98" height="36" viewBox="0 0 98 36" fill="none" xmlns="http://www.w3.org/2000/svg">
<path d="M4.64 15.68C4.64 10.7925 4.64 8.34871 5.81297 6.59323C6.32076 5.83327 6.97327 5.18076 7.73323 4.67297C9.48871 3.5 11.9325 3.5 16.82 3.5C21.7075 3.5 24.1513 3.5 25.9068 4.67297C26.6667 5.18076 27.3192 5.83327 27.827 6.59323C29 8.34871 29 10.7925 29 15.68C29 20.5675 29 23.0113 27.827 24.7668C27.3192 25.5267 26.6667 26.1792 25.9068 26.687C24.1513 27.86 21.7075 27.86 16.82 27.86C11.9325 27.86 9.48871 27.86 7.73323 26.687C6.97327 26.1792 6.32076 25.5267 5.81297 24.7668C4.64 23.0113 4.64 20.5675 4.64 15.68Z" fill="#553B33"/>
<path d="M0 17.42C0 13.0454 0 10.858 1.35902 9.49902C2.71805 8.14 4.90537 8.14 9.28 8.14H15.08C19.4546 8.14 21.6419 8.14 23.001 9.49902C24.36 10.858 24.36 13.0454 24.36 17.42V23.22C24.36 27.5946 24.36 29.7819 23.001 31.141C21.6419 32.5 19.4546 32.5 15.08 32.5H9.28C4.90537 32.5 2.71805 32.5 1.35902 31.141C0 29.7819 0 27.5946 0 23.22V17.42Z" fill="#2F241F"/>
<path d="M41.9182 24.6701H37.1332V11.1719H41.9578C43.3155 11.1719 44.4843 11.4421 45.4641 11.9826C46.444 12.5186 47.1976 13.2898 47.7248 14.296C48.2565 15.3022 48.5223 16.5061 48.5223 17.9078C48.5223 19.3138 48.2565 20.5222 47.7248 21.5328C47.1976 22.5434 46.4396 23.3189 45.451 23.8594C44.4667 24.3998 43.2891 24.6701 41.9182 24.6701ZM39.9871 22.2248H41.7996C42.6432 22.2248 43.3529 22.0754 43.9285 21.7766C44.5085 21.4735 44.9435 21.0055 45.2335 20.3728C45.5279 19.7357 45.6751 18.914 45.6751 17.9078C45.6751 16.9104 45.5279 16.0953 45.2335 15.4626C44.9435 14.8298 44.5107 14.3641 43.9351 14.0653C43.3595 13.7665 42.6498 13.6171 41.8062 13.6171H39.9871V22.2248Z" fill="#2F241F"/>
<path d="M54.4549 24.8678C53.4135 24.8678 52.5171 24.6569 51.7658 24.2351C51.0188 23.8088 50.4432 23.2069 50.039 22.4291C49.6347 21.647 49.4326 20.7221 49.4326 19.6544C49.4326 18.613 49.6347 17.6991 50.039 16.9126C50.4432 16.126 51.0122 15.5131 51.746 15.0737C52.4842 14.6343 53.3498 14.4146 54.3428 14.4146C55.0107 14.4146 55.6325 14.5223 56.2081 14.7376C56.7881 14.9485 57.2934 15.267 57.724 15.6932C58.159 16.1195 58.4973 16.6555 58.739 17.3014C58.9806 17.9429 59.1015 18.6943 59.1015 19.5555V20.3266H50.5531V18.5866H56.4585C56.4585 18.1824 56.3706 17.8243 56.1949 17.5123C56.0191 17.2004 55.7753 16.9565 55.4633 16.7807C55.1557 16.6006 54.7976 16.5105 54.389 16.5105C53.9628 16.5105 53.5849 16.6094 53.2553 16.8071C52.9302 17.0004 52.6753 17.2619 52.4908 17.5914C52.3062 17.9166 52.2118 18.2791 52.2074 18.6789V20.3332C52.2074 20.8341 52.2996 21.267 52.4842 21.6316C52.6731 21.9963 52.939 22.2776 53.2817 22.4753C53.6244 22.673 54.0309 22.7719 54.501 22.7719C54.813 22.7719 55.0986 22.7279 55.3578 22.6401C55.6171 22.5522 55.839 22.4204 56.0235 22.2446C56.2081 22.0688 56.3487 21.8535 56.4453 21.5987L59.0421 21.7701C58.9103 22.394 58.6401 22.9388 58.2315 23.4046C57.8272 23.866 57.3043 24.2263 56.6628 24.4855C56.0257 24.7404 55.2897 24.8678 54.4549 24.8678Z" fill="#2F241F"/>
<path d="M62.7354 21.7569L62.742 18.3889H63.1507L66.3934 14.5464H69.6163L65.2597 19.6346H64.5941L62.7354 21.7569ZM60.1913 24.6701V11.1719H62.9991V24.6701H60.1913ZM66.5186 24.6701L63.5395 20.2607L65.4113 18.2769L69.8075 24.6701H66.5186Z" fill="#2F241F"/>
<path d="M74.4087 24.8678C73.3849 24.8678 72.4995 24.6503 71.7525 24.2153C71.0099 23.7759 70.4365 23.1651 70.0323 22.383C69.628 21.5965 69.4259 20.6848 69.4259 19.6478C69.4259 18.602 69.628 17.6881 70.0323 16.906C70.4365 16.1195 71.0099 15.5087 71.7525 15.0737C72.4995 14.6343 73.3849 14.4146 74.4087 14.4146C75.4324 14.4146 76.3156 14.6343 77.0582 15.0737C77.8052 15.5087 78.3808 16.1195 78.785 16.906C79.1893 17.6881 79.3914 18.602 79.3914 19.6478C79.3914 20.6848 79.1893 21.5965 78.785 22.383C78.3808 23.1651 77.8052 23.7759 77.0582 24.2153C76.3156 24.6503 75.4324 24.8678 74.4087 24.8678ZM74.4218 22.6928C74.8876 22.6928 75.2765 22.561 75.5884 22.2973C75.9004 22.0293 76.1355 21.6646 76.2937 21.2032C76.4562 20.7419 76.5375 20.2168 76.5375 19.628C76.5375 19.0392 76.4562 18.5141 76.2937 18.0528C76.1355 17.5914 75.9004 17.2267 75.5884 16.9587C75.2765 16.6907 74.8876 16.5566 74.4218 16.5566C73.9517 16.5566 73.5562 16.6907 73.2355 16.9587C72.9191 17.2267 72.6796 17.5914 72.5171 18.0528C72.3589 18.5141 72.2798 19.0392 72.2798 19.628C72.2798 20.2168 72.3589 20.7419 72.5171 21.2032C72.6796 21.6646 72.9191 22.0293 73.2355 22.2973C73.5562 22.561 73.9517 22.6928 74.4218 22.6928Z" fill="#2F241F"/>
<path d="M85.0488 24.8678C84.025 24.8678 83.1396 24.6503 82.3926 24.2153C81.65 23.7759 81.0766 23.1651 80.6724 22.383C80.2682 21.5965 80.066 20.6848 80.066 19.6478C80.066 18.602 80.2682 17.6881 80.6724 16.906C81.0766 16.1195 81.65 15.5087 82.3926 15.0737C83.1396 14.6343 84.025 14.4146 85.0488 14.4146C86.0725 14.4146 86.9557 14.6343 87.6983 15.0737C88.4453 15.5087 89.0209 16.1195 89.4251 16.906C89.8294 17.6881 90.0315 18.602 90.0315 19.6478C90.0315 20.6848 89.8294 21.5965 89.4251 22.383C89.0209 23.1651 88.4453 23.7759 87.6983 24.2153C86.9557 24.6503 86.0725 24.8678 85.0488 24.8678ZM85.0619 22.6928C85.5277 22.6928 85.9166 22.561 86.2285 22.2973C86.5405 22.0293 86.7756 21.6646 86.9338 21.2032C87.0963 20.7419 87.1776 20.2168 87.1776 19.628C87.1776 19.0392 87.0963 18.5141 86.9338 18.0528C86.7756 17.5914 86.5405 17.2267 86.2285 16.9587C85.9166 16.6907 85.5277 16.5566 85.0619 16.5566C84.5918 16.5566 84.1963 16.6907 83.8756 16.9587C83.5592 17.2267 83.3197 17.5914 83.1572 18.0528C82.999 18.5141 82.9199 19.0392 82.9199 19.628C82.9199 20.2168 82.999 20.7419 83.1572 21.2032C83.3197 21.6646 83.5592 22.0293 83.8756 22.2973C84.1963 22.561 84.5918 22.6928 85.0619 22.6928Z" fill="#2F241F"/>
<path d="M91.1148 24.6701V14.5464H93.8368V16.3128H93.9423C94.1268 15.6845 94.4366 15.2099 94.8716 14.8891C95.3066 14.564 95.8075 14.4014 96.3743 14.4014C96.5149 14.4014 96.6665 14.4102 96.8291 14.4278C96.9917 14.4454 97.1345 14.4695 97.2575 14.5003V16.9916C97.1257 16.9521 96.9433 16.917 96.7104 16.8862C96.4776 16.8554 96.2645 16.8401 96.0711 16.8401C95.6581 16.8401 95.289 16.9301 94.9639 17.1103C94.6431 17.286 94.3882 17.5321 94.1993 17.8485C94.0148 18.1648 93.9225 18.5295 93.9225 18.9426V24.6701H91.1148Z" fill="#2F241F"/>
</svg>
