<svg width="168" height="48" viewBox="0 0 168 48" fill="none" xmlns="http://www.w3.org/2000/svg">
<g clip-path="url(#clip0_0_1982)">
<path d="M65.432 32L62.84 14.3H66.668L68.552 31.196L68.012 31.172L71.012 14.3H75.656L78.644 31.172L78.104 31.196L79.988 14.3H83.816L81.224 32H75.512L73.148 16.88H73.532L71.144 32H65.432ZM86.7941 26.744V24.284H95.2421L94.8821 24.908C94.8821 24.844 94.8821 24.784 94.8821 24.728C94.8821 24.664 94.8821 24.604 94.8821 24.548C94.8821 24.092 94.7741 23.656 94.5581 23.24C94.3421 22.816 94.0061 22.472 93.5501 22.208C93.1021 21.936 92.5261 21.8 91.8221 21.8C91.1181 21.8 90.5101 21.952 89.9981 22.256C89.4941 22.552 89.1061 22.98 88.8341 23.54C88.5701 24.1 88.4381 24.776 88.4381 25.568C88.4381 26.384 88.5661 27.084 88.8221 27.668C89.0861 28.244 89.4741 28.688 89.9861 29C90.5061 29.312 91.1501 29.468 91.9181 29.468C92.4141 29.468 92.8421 29.424 93.2021 29.336C93.5621 29.24 93.8541 29.12 94.0781 28.976C94.3101 28.832 94.4861 28.672 94.6061 28.496C94.7261 28.32 94.7981 28.148 94.8221 27.98H98.4941C98.4461 28.516 98.2621 29.044 97.9421 29.564C97.6221 30.076 97.1781 30.54 96.6101 30.956C96.0421 31.364 95.3501 31.688 94.5341 31.928C93.7261 32.168 92.8021 32.288 91.7621 32.288C90.3541 32.288 89.1261 32.008 88.0781 31.448C87.0301 30.88 86.2181 30.1 85.6421 29.108C85.0661 28.108 84.7781 26.956 84.7781 25.652C84.7781 24.332 85.0701 23.176 85.6541 22.184C86.2461 21.184 87.0661 20.408 88.1141 19.856C89.1701 19.296 90.3901 19.016 91.7741 19.016C93.1901 19.016 94.4141 19.3 95.4461 19.868C96.4781 20.428 97.2741 21.216 97.8341 22.232C98.3941 23.24 98.6741 24.416 98.6741 25.76C98.6741 25.96 98.6701 26.152 98.6621 26.336C98.6541 26.52 98.6421 26.656 98.6261 26.744H86.7941ZM108.667 32.276C107.659 32.276 106.735 32.008 105.895 31.472C105.055 30.936 104.383 30.212 103.879 29.3C103.375 28.38 103.123 27.348 103.123 26.204C103.123 26.172 103.123 26.144 103.123 26.12C103.123 26.088 103.123 26.052 103.123 26.012L104.731 25.976C104.731 26 104.731 26.024 104.731 26.048C104.731 26.072 104.731 26.096 104.731 26.12C104.731 26.712 104.875 27.232 105.163 27.68C105.451 28.12 105.823 28.46 106.279 28.7C106.735 28.94 107.211 29.06 107.707 29.06C108.523 29.06 109.231 28.78 109.831 28.22C110.439 27.652 110.743 26.768 110.743 25.568C110.743 24.368 110.443 23.496 109.843 22.952C109.243 22.4 108.531 22.124 107.707 22.124C107.211 22.124 106.735 22.244 106.279 22.484C105.823 22.716 105.451 23.048 105.163 23.48C104.875 23.912 104.731 24.428 104.731 25.028L103.123 24.932C103.123 23.78 103.375 22.764 103.879 21.884C104.383 20.996 105.055 20.3 105.895 19.796C106.735 19.284 107.659 19.028 108.667 19.028C109.699 19.028 110.663 19.28 111.559 19.784C112.455 20.288 113.179 21.028 113.731 22.004C114.291 22.98 114.571 24.168 114.571 25.568C114.571 27.032 114.299 28.264 113.755 29.264C113.211 30.256 112.491 31.008 111.595 31.52C110.699 32.024 109.723 32.276 108.667 32.276ZM100.999 32V13.244H104.731V32H100.999ZM118.367 32V22.136H115.715V19.256H118.367V18.38C118.367 17.532 118.479 16.808 118.703 16.208C118.935 15.6 119.247 15.096 119.639 14.696C120.031 14.288 120.471 13.968 120.959 13.736C121.455 13.496 121.963 13.328 122.483 13.232C123.011 13.128 123.523 13.076 124.019 13.076C124.547 13.076 124.939 13.108 125.195 13.172C125.459 13.228 125.635 13.276 125.723 13.316V16.208C125.627 16.176 125.455 16.14 125.207 16.1C124.967 16.06 124.707 16.04 124.427 16.04C123.963 16.04 123.579 16.1 123.275 16.22C122.971 16.34 122.731 16.516 122.555 16.748C122.379 16.972 122.255 17.24 122.183 17.552C122.111 17.856 122.075 18.188 122.075 18.548V19.256H125.495V22.136H122.075V32H118.367ZM131.242 13.244V32H127.57V13.244H131.242ZM140.594 32.276C139.218 32.276 138.006 31.992 136.958 31.424C135.91 30.856 135.09 30.076 134.498 29.084C133.914 28.084 133.622 26.932 133.622 25.628C133.622 24.332 133.914 23.188 134.498 22.196C135.09 21.196 135.91 20.42 136.958 19.868C138.006 19.308 139.218 19.028 140.594 19.028C141.97 19.028 143.182 19.308 144.23 19.868C145.278 20.42 146.094 21.196 146.678 22.196C147.27 23.188 147.566 24.332 147.566 25.628C147.566 26.932 147.27 28.084 146.678 29.084C146.094 30.076 145.278 30.856 144.23 31.424C143.182 31.992 141.97 32.276 140.594 32.276ZM140.594 29.324C141.242 29.324 141.806 29.172 142.286 28.868C142.766 28.564 143.138 28.136 143.402 27.584C143.666 27.024 143.798 26.372 143.798 25.628C143.798 24.884 143.666 24.24 143.402 23.696C143.138 23.144 142.766 22.72 142.286 22.424C141.806 22.128 141.242 21.98 140.594 21.98C139.954 21.98 139.39 22.128 138.902 22.424C138.422 22.72 138.05 23.144 137.786 23.696C137.522 24.24 137.39 24.884 137.39 25.628C137.39 26.372 137.522 27.024 137.786 27.584C138.05 28.136 138.422 28.564 138.902 28.868C139.39 29.172 139.954 29.324 140.594 29.324ZM159.904 32L157.24 19.256H159.952L162.628 30.944L162.016 30.968L163.684 19.256H167.524L164.98 32H159.904ZM151.048 32L148.504 19.256H152.344L154.012 30.968L153.412 30.944L156.064 19.256H158.776L156.136 32H151.048Z" fill="white"/>
<path d="M43.8857 17.5381L36.291 40.916H11.709L4.11328 17.5381L24 3.08984L43.8857 17.5381Z" stroke="#EF6D58" stroke-width="5"/>
<path d="M23.5 14L32.535 20.5643L29.084 31.1857H17.916L14.465 20.5643L23.5 14Z" fill="#EF6D58"/>
</g>
<defs>
<clipPath id="clip0_0_1982">
<rect width="168" height="48" fill="white"/>
</clipPath>
</defs>
</svg>
