<svg width="23" height="11" viewBox="0 0 23 11" fill="none" xmlns="http://www.w3.org/2000/svg">
<path d="M5.85783 1.6292L5.85784 1.6292C5.9047 1.67569 5.9419 1.73099 5.96728 1.79192C5.99267 1.85285 6.00574 1.9182 6.00574 1.9842C6.00574 2.05021 5.99267 2.11556 5.96728 2.17649C5.9419 2.23742 5.9047 2.29272 5.85784 2.3392L5.85746 2.33958L2.54746 5.62958L2.19881 5.97612L2.53938 6.33061L5.71938 9.6406L5.71932 9.64066L5.72534 9.6467C5.81846 9.74038 5.87073 9.86711 5.87073 9.9992C5.87073 10.1313 5.81846 10.258 5.72534 10.3517L5.72494 10.3521C5.67846 10.399 5.62316 10.4362 5.56223 10.4615C5.5013 10.4869 5.43595 10.5 5.36994 10.5C5.30393 10.5 5.23858 10.4869 5.17765 10.4615C5.11759 10.4365 5.06301 10.4 5.01694 10.3541L1.15973 6.357L1.15975 6.35699L1.15701 6.3542C1.0654 6.26074 1.01408 6.13508 1.01408 6.0042C1.01408 5.87402 1.06486 5.74899 1.15557 5.65568L5.15349 1.65776L5.16028 1.65097L5.16681 1.64392C5.21169 1.59545 5.26572 1.55636 5.3258 1.5289C5.38375 1.5024 5.44621 1.48724 5.50982 1.4842C5.57325 1.48472 5.63602 1.49731 5.69478 1.52131C5.7557 1.54619 5.81111 1.58285 5.85783 1.6292Z" fill="#F16214" stroke="#F16214"/>
<line x1="2.99994" y1="5.98438" x2="21.9999" y2="5.98438" stroke="#F16214" stroke-width="2" stroke-linecap="round"/>
</svg>
