<?xml version="1.0" standalone="no"?>
<!DOCTYPE svg PUBLIC "-//W3C//DTD SVG 20010904//EN"
 "http://www.w3.org/TR/2001/REC-SVG-20010904/DTD/svg10.dtd">
<svg version="1.0" xmlns="http://www.w3.org/2000/svg"
 width="50.000000pt" height="50.000000pt" viewBox="0 0 50.000000 50.000000"
 preserveAspectRatio="xMidYMid meet">

<g transform="translate(0.000000,50.000000) scale(0.100000,-0.100000)"
fill="#EDEDED" stroke="none">
<path d="M155 456 c-60 -28 -87 -56 -114 -116 -36 -79 -19 -183 42 -249 33
-36 115 -71 167 -71 52 0 134 35 167 71 34 37 63 110 63 159 0 52 -35 134 -71
167 -37 34 -110 63 -159 63 -27 0 -65 -10 -95 -24z m180 -15 c128 -58 164
-223 72 -328 -101 -115 -283 -88 -348 52 -79 171 104 354 276 276z"/>
<path d="M220 415 c-15 -18 -10 -45 13 -59 34 -22 73 27 47 59 -16 19 -44 19
-60 0z m46 -16 c10 -17 -13 -36 -27 -22 -12 12 -4 33 11 33 5 0 12 -5 16 -11z"/>
<path d="M105 341 c-10 -18 10 -36 55 -50 37 -11 40 -14 40 -49 0 -20 -6 -60
-14 -89 -12 -45 -12 -54 0 -64 19 -16 41 3 49 42 4 16 10 29 15 29 5 0 11 -13
15 -29 8 -39 30 -58 49 -42 12 10 12 19 0 64 -8 29 -14 69 -14 89 0 34 3 37
43 50 31 11 43 21 45 38 4 22 2 23 -40 15 -55 -10 -141 -10 -194 0 -28 5 -44
4 -49 -4z m126 -28 c33 -3 73 0 94 7 20 7 39 10 41 7 3 -3 -14 -11 -38 -19
l-43 -15 0 -54 c1 -30 4 -72 8 -94 6 -34 4 -31 -14 18 -11 31 -24 57 -29 57
-5 0 -18 -26 -29 -57 -12 -32 -19 -44 -16 -28 3 17 8 58 12 92 6 62 5 63 -23
73 -16 6 -38 15 -49 20 -17 9 -17 10 5 4 14 -3 50 -8 81 -11z"/>
</g>
</svg>
