<?xml version="1.0" standalone="no"?>
<!DOCTYPE svg PUBLIC "-//W3C//DTD SVG 20010904//EN"
 "http://www.w3.org/TR/2001/REC-SVG-20010904/DTD/svg10.dtd">
<svg version="1.0" xmlns="http://www.w3.org/2000/svg"
 width="48.000000pt" height="48.000000pt" viewBox="0 0 48.000000 48.000000"
 preserveAspectRatio="xMidYMid meet">

<g transform="translate(0.000000,48.000000) scale(0.100000,-0.100000)"
fill="#EDEDED" stroke="none">
<path d="M61 406 c-8 -9 -11 -50 -9 -117 l3 -104 68 -3 c42 -2 67 1 67 8 0 6
-25 10 -60 10 l-61 0 3 98 3 97 155 0 c139 0 155 -2 158 -17 3 -16 -6 -18 -75
-18 -48 0 -84 -5 -91 -12 -17 -17 -17 -259 0 -276 14 -14 78 -16 78 -3 0 6
-15 11 -32 13 l-33 3 0 125 0 125 95 0 95 0 3 -27 c3 -26 1 -27 -50 -30 l-53
-3 0 -115 0 -115 65 0 65 0 -1 144 c-1 135 -2 145 -22 162 -12 9 -22 23 -22
31 0 33 -23 38 -181 38 -122 0 -159 -3 -168 -14z m379 -246 l0 -100 -50 0 -50
0 0 100 0 100 50 0 50 0 0 -100z"/>
<path d="M380 90 c0 -5 5 -10 10 -10 6 0 10 5 10 10 0 6 -4 10 -10 10 -5 0
-10 -4 -10 -10z"/>
<path d="M21 146 c-8 -13 -10 -29 -7 -35 9 -14 176 -15 176 -1 0 6 -33 10 -80
10 -77 0 -80 1 -70 19 12 24 13 31 2 31 -5 0 -14 -11 -21 -24z"/>
</g>
</svg>
