<?xml version="1.0" standalone="no"?>
<!DOCTYPE svg PUBLIC "-//W3C//DTD SVG 20010904//EN"
 "http://www.w3.org/TR/2001/REC-SVG-20010904/DTD/svg10.dtd">
<svg version="1.0" xmlns="http://www.w3.org/2000/svg"
 width="50.000000pt" height="50.000000pt" viewBox="0 0 50.000000 50.000000"
 preserveAspectRatio="xMidYMid meet">

<g transform="translate(0.000000,50.000000) scale(0.100000,-0.100000)"
fill="#EDEDED" stroke="none">
<path d="M176 445 c-21 -7 -54 -28 -72 -46 -32 -31 -34 -31 -34 -11 0 12 -4
22 -10 22 -5 0 -10 -20 -10 -45 l0 -45 45 0 c25 0 45 5 45 10 0 6 -11 10 -25
10 -32 0 -32 10 3 43 30 29 90 57 122 57 11 0 20 5 20 10 0 14 -38 12 -84 -5z"/>
<path d="M320 405 c0 -25 5 -45 10 -45 6 0 10 11 10 25 0 32 10 32 43 -2 29
-31 57 -91 57 -123 0 -11 5 -20 10 -20 29 0 -3 102 -47 151 -32 35 -33 39 -14
39 11 0 21 5 21 10 0 6 -20 10 -45 10 l-45 0 0 -45z"/>
<path d="M201 336 c-87 -48 -50 -186 49 -186 51 0 100 49 100 99 0 75 -83 124
-149 87z m104 -31 c33 -32 33 -78 0 -110 -49 -50 -135 -15 -135 55 0 19 9 40
25 55 15 16 36 25 55 25 19 0 40 -9 55 -25z"/>
<path d="M240 285 c0 -20 -5 -25 -25 -25 -14 0 -25 -4 -25 -10 0 -5 11 -10 25
-10 20 0 25 -5 25 -25 0 -14 5 -25 10 -25 6 0 10 11 10 25 0 20 5 25 25 25 14
0 25 5 25 10 0 6 -11 10 -25 10 -20 0 -25 5 -25 25 0 14 -4 25 -10 25 -5 0
-10 -11 -10 -25z"/>
<path d="M40 243 c0 -42 24 -97 57 -134 32 -35 33 -39 14 -39 -11 0 -21 -4
-21 -10 0 -5 20 -10 45 -10 l45 0 0 45 c0 25 -4 45 -10 45 -5 0 -10 -11 -10
-25 0 -32 -10 -32 -43 3 -29 30 -57 90 -57 122 0 11 -4 20 -10 20 -5 0 -10 -8
-10 -17z"/>
<path d="M360 170 c0 -5 11 -10 25 -10 32 0 32 -10 -2 -43 -31 -29 -91 -57
-123 -57 -11 0 -20 -4 -20 -10 0 -29 102 3 151 47 35 32 39 33 39 14 0 -11 5
-21 10 -21 6 0 10 20 10 45 l0 45 -45 0 c-25 0 -45 -4 -45 -10z"/>
</g>
</svg>
