<?xml version="1.0" standalone="no"?>
<!DOCTYPE svg PUBLIC "-//W3C//DTD SVG 20010904//EN"
 "http://www.w3.org/TR/2001/REC-SVG-20010904/DTD/svg10.dtd">
<svg version="1.0" xmlns="http://www.w3.org/2000/svg"
 width="50.000000pt" height="50.000000pt" viewBox="0 0 50.000000 50.000000"
 preserveAspectRatio="xMidYMid meet">

<g transform="translate(0.000000,50.000000) scale(0.100000,-0.100000)"
fill="#EDEDED" stroke="none">
<path d="M297 477 c-8 -13 -30 -28 -49 -33 -19 -6 -41 -22 -53 -41 -11 -18
-32 -33 -47 -37 -17 -3 -39 -22 -58 -48 -17 -24 -45 -51 -61 -62 -22 -14 -29
-24 -26 -40 3 -12 13 -56 22 -98 16 -75 18 -78 45 -78 15 0 33 -6 39 -13 16
-20 226 -20 242 0 6 7 22 13 36 13 42 0 63 18 63 53 0 18 2 50 5 72 3 22 7 51
8 65 2 14 6 35 11 47 4 13 2 31 -4 43 -9 17 -7 28 11 56 12 19 20 37 18 38 -8
8 -145 74 -165 80 -16 5 -25 0 -37 -17z m170 -71 c3 -2 -3 -18 -13 -35 l-18
-31 -93 0 -93 0 -15 -37 c-23 -58 -31 -68 -51 -68 -27 0 -24 56 7 120 18 38
34 55 64 69 22 11 46 28 53 37 12 17 17 16 83 -16 39 -19 73 -36 76 -39z
m-313 -91 c-27 -66 -11 -110 38 -103 17 2 30 18 48 56 l24 53 96 -3 c87 -3 95
-5 95 -23 0 -13 -8 -21 -22 -23 -29 -4 -30 -18 -2 -25 28 -7 21 -41 -9 -45
-28 -4 -29 -18 -1 -25 28 -7 21 -41 -9 -45 -28 -4 -29 -18 -1 -25 32 -9 20
-41 -16 -45 -23 -2 -32 2 -40 20 -10 22 -15 23 -125 23 -110 0 -115 -1 -125
-23 -6 -14 -17 -22 -29 -20 -16 2 -23 19 -37 82 -16 75 -16 81 -1 93 9 7 20
13 24 13 3 0 22 23 42 50 44 61 73 70 50 15z m1 -255 c0 -13 -6 -25 -12 -27
-16 -6 -27 21 -19 43 9 23 31 11 31 -16z m60 0 c0 -13 -6 -25 -12 -27 -16 -6
-27 21 -19 43 9 23 31 11 31 -16z m60 0 c0 -27 -22 -39 -31 -16 -8 22 3 49 19
43 6 -2 12 -14 12 -27z m60 0 c0 -13 -6 -25 -12 -27 -16 -6 -27 21 -19 43 9
23 31 11 31 -16z"/>
</g>
</svg>
