<svg width="50" height="48" viewBox="0 0 50 48" fill="none" xmlns="http://www.w3.org/2000/svg">
<rect width="49.658" height="48" rx="13" fill="#F0BB1F"/>
<path d="M14.3106 17.4755C13.9973 17.4755 13.7409 17.2328 13.7352 16.9363V13.5446C13.7352 13.2426 13.9916 13 14.3106 13H17.8941C18.2074 13 18.4638 13.2426 18.4638 13.5446V14.7255H32.2508V13.5446C32.2508 13.248 32.5071 13.0054 32.8205 13H36.404C36.7173 13 36.9737 13.2426 36.9794 13.5446V16.9363C36.9794 17.2328 36.723 17.4755 36.404 17.4755H35.1563V30.5245H36.404C36.7173 30.5245 36.9737 30.7672 36.9794 31.0637V34.4554C36.9794 34.752 36.723 34.9946 36.404 35H32.8205C32.5071 35 32.2508 34.7574 32.2508 34.4554V33.2745H18.4638V34.4554C18.4638 34.752 18.2074 34.9946 17.8941 35H14.3106C13.9973 35 13.7409 34.7574 13.7352 34.4554V31.0637C13.7352 30.7672 13.9916 30.5245 14.3106 30.5245H15.5583V17.4755H14.3106ZM35.84 16.3971V14.0784H33.3902V16.3971H35.84ZM33.3902 33.9216H35.84V31.6029H33.3902V33.9216ZM18.4638 31.0637V32.1961H32.2508V31.0637C32.2508 30.7672 32.5071 30.5245 32.8205 30.5245H34.0169V17.4755H32.8205C32.5071 17.4755 32.2508 17.2328 32.2508 16.9363V15.8039H18.4638V16.9363C18.4638 17.2328 18.2074 17.4755 17.8941 17.4755H16.6977V30.5245H17.8941C18.2074 30.5245 18.4638 30.7672 18.4638 31.0637ZM14.8746 31.6029V33.9216H17.3244V31.6029H14.8746ZM17.3244 16.3971V14.0784H14.8746V16.3971H17.3244Z" fill="white"/>
</svg>
