<svg width="50" height="48" viewBox="0 0 50 48" fill="none" xmlns="http://www.w3.org/2000/svg">
<rect width="49.658" height="48" rx="13" fill="#F15A2B"/>
<path d="M34.6744 31.9287C34.1988 31.9379 33.7316 31.8091 33.3356 31.5596C33.0408 31.3773 32.6963 31.2802 32.3442 31.2802C31.9921 31.2802 31.6477 31.3773 31.3529 31.5596C30.9529 31.8006 30.4885 31.9287 30.0143 31.9287C29.5401 31.9287 29.0757 31.8006 28.6757 31.5596C28.3809 31.3771 28.0363 31.2799 27.6842 31.2799C27.332 31.2799 26.9874 31.3771 26.6926 31.5596C26.2926 31.8006 25.8282 31.9287 25.354 31.9287C24.8798 31.9287 24.4154 31.8006 24.0154 31.5596C23.7209 31.3772 23.3765 31.2801 23.0246 31.2801C22.6726 31.2801 22.3283 31.3772 22.0338 31.5596C21.6711 31.7877 21.2478 31.9145 20.8125 31.9254L20.7885 31.2768C21.1101 31.2695 21.4223 31.1732 21.6866 30.9998C22.0866 30.7588 22.5508 30.6308 23.0249 30.6308C23.499 30.6308 23.9633 30.7588 24.3632 30.9998C24.6579 31.1821 25.0024 31.2793 25.3545 31.2793C25.7067 31.2793 26.0511 31.1821 26.3459 30.9998C26.746 30.7586 27.2105 30.6304 27.6848 30.6304C28.1592 30.6304 28.6237 30.7586 29.0238 30.9998C29.3185 31.1821 29.663 31.2793 30.0151 31.2793C30.3673 31.2793 30.7117 31.1821 31.0065 30.9998C31.4065 30.7588 31.8709 30.6308 32.3451 30.6308C32.8193 30.6308 33.2837 30.7588 33.6837 30.9998C33.9792 31.1826 34.3245 31.2799 34.6774 31.2799C35.0304 31.2799 35.3757 31.1826 35.6712 30.9998C36.0667 30.751 36.5331 30.6225 37.0079 30.6314V31.28C36.6544 31.2708 36.307 31.3687 36.0162 31.5592C35.6193 31.8091 35.151 31.938 34.6744 31.9287Z" fill="white"/>
<path d="M16.0367 31.9287C15.5612 31.938 15.0941 31.8092 14.6983 31.5596C14.4076 31.3689 14.0602 31.2709 13.7066 31.2801V30.6314C14.1822 30.6221 14.6495 30.7509 15.0454 31.0005C15.3359 31.1913 15.6833 31.2892 16.0367 31.2801C16.3904 31.2893 16.7378 31.1912 17.0284 31.0002C17.4235 30.7507 17.89 30.622 18.3648 30.6314C18.8281 30.6216 19.2838 30.7444 19.6721 30.9839L19.3263 31.5437C19.0427 31.3631 18.7065 31.2709 18.3648 31.2801C18.0126 31.2711 17.6666 31.3688 17.3772 31.559C16.981 31.8093 16.513 31.9383 16.0367 31.9287Z" fill="white"/>
<path d="M34.6754 29.6581C34.1994 29.6673 33.7319 29.5385 33.3355 29.289C33.0405 29.1065 32.6958 29.0094 32.3433 29.0094C31.9909 29.0094 31.6462 29.1065 31.3512 29.289C30.9512 29.53 30.4869 29.658 30.0127 29.658C29.5386 29.658 29.0742 29.53 28.6742 29.289C28.3796 29.1067 28.0353 29.0095 27.6833 29.0095C27.3313 29.0095 26.9869 29.1067 26.6923 29.289C26.2923 29.5301 25.828 29.6581 25.3538 29.6581C24.8797 29.6581 24.4153 29.5301 24.0154 29.289C23.7208 29.1067 23.3764 29.0095 23.0244 29.0095C22.6724 29.0095 22.328 29.1067 22.0334 29.289C21.6376 29.5386 21.1705 29.6674 20.6949 29.6581C20.2194 29.6674 19.7523 29.5386 19.3565 29.289C19.0661 29.0983 18.7189 29.0003 18.3655 29.0094C18.0122 29.0004 17.6652 29.0983 17.3748 29.289C16.9797 29.5383 16.5133 29.6671 16.0384 29.6581C15.5628 29.6674 15.0956 29.5386 14.6996 29.289C14.4086 29.0979 14.0607 28.9999 13.7066 29.0094V28.3608C14.1821 28.3515 14.6492 28.4803 15.0451 28.7299C15.3357 28.9206 15.6832 29.0185 16.0367 29.0094C16.39 29.0185 16.7371 28.9206 17.0274 28.7299C17.4226 28.4805 17.8889 28.3517 18.3638 28.3608C18.8396 28.3512 19.3072 28.48 19.7033 28.7299C19.9938 28.9207 20.3411 29.0186 20.6946 29.0094C21.0481 29.0186 21.3954 28.9207 21.6859 28.7299C22.0859 28.4888 22.5502 28.3607 23.0244 28.3607C23.4986 28.3607 23.9629 28.4888 24.3628 28.7299C24.6575 28.9122 25.0019 29.0094 25.354 29.0094C25.7061 29.0094 26.0505 28.9122 26.3451 28.7299C26.7451 28.4888 27.2094 28.3607 27.6836 28.3607C28.1578 28.3607 28.6221 28.4888 29.0221 28.7299C29.3167 28.9122 29.6611 29.0094 30.0132 29.0094C30.3653 29.0094 30.7097 28.9122 31.0044 28.7299C31.4047 28.4889 31.8694 28.3609 32.3439 28.3609C32.8183 28.3609 33.283 28.4889 33.6833 28.7299C33.9785 28.9122 34.3234 29.0093 34.6759 29.0093C35.0284 29.0093 35.3732 28.9122 35.6684 28.7299C36.0647 28.4804 36.5321 28.3517 37.0079 28.3608V29.0094C36.6536 29 36.3054 29.0979 36.0142 29.289C35.6181 29.5383 35.1509 29.6671 34.6754 29.6581Z" fill="white"/>
<path d="M34.6744 27.3881C34.1988 27.3973 33.7316 27.2685 33.3356 27.0191C33.0449 26.8283 32.6975 26.7304 32.3439 26.7395C32.0844 26.731 31.8267 26.7834 31.5938 26.8919L31.2916 26.3081C31.6187 26.1564 31.9797 26.0815 32.3439 26.0899C32.8201 26.0807 33.2878 26.2098 33.6841 26.4599C33.9795 26.6427 34.3248 26.7401 34.6778 26.7401C35.0308 26.7401 35.3761 26.6427 35.6715 26.4599C36.0669 26.211 36.5331 26.0822 37.0079 26.0908V26.7395C36.6544 26.7303 36.307 26.8281 36.0162 27.0187C35.6193 27.2686 35.151 27.3975 34.6744 27.3881Z" fill="white"/>
<path d="M30.0106 27.3881C29.5358 27.3975 29.0693 27.2688 28.6742 27.0193C28.3795 26.8368 28.0349 26.7396 27.6827 26.7396C27.3305 26.7396 26.986 26.8368 26.6912 27.0193C26.2912 27.2603 25.8268 27.3884 25.3526 27.3884C24.8784 27.3884 24.414 27.2603 24.014 27.0193C23.7193 26.8369 23.3748 26.7398 23.0227 26.7398C22.6705 26.7398 22.3261 26.8369 22.0313 27.0193C21.6356 27.2685 21.1688 27.3972 20.6936 27.3881C20.218 27.3974 19.7509 27.2685 19.3551 27.019C19.0644 26.8282 18.717 26.7303 18.3634 26.7394C18.0113 26.7304 17.6653 26.8281 17.3759 27.0183C16.98 27.2684 16.5126 27.3974 16.0367 27.3881C15.5612 27.3974 15.0941 27.2685 14.6983 27.019C14.4076 26.8282 14.0602 26.7303 13.7066 26.7394V26.0908C14.1822 26.0814 14.6495 26.2102 15.0454 26.4598C15.3359 26.6506 15.6833 26.7486 16.0367 26.7394C16.3904 26.7486 16.7378 26.6505 17.0284 26.4595C17.4235 26.21 17.89 26.0813 18.3648 26.0908C18.8403 26.0815 19.3074 26.2103 19.7033 26.4598C19.9938 26.6506 20.3411 26.7486 20.6946 26.7394C21.0482 26.7485 21.3956 26.6506 21.6863 26.4598C22.0863 26.2188 22.5507 26.0908 23.0249 26.0908C23.4991 26.0908 23.9635 26.2188 24.3635 26.4598C24.6582 26.6422 25.0027 26.7393 25.3548 26.7393C25.707 26.7393 26.0514 26.6422 26.3462 26.4598C26.7463 26.2186 27.2108 26.0905 27.6851 26.0905C28.1595 26.0905 28.624 26.2186 29.0241 26.4598C29.326 26.652 29.684 26.7497 30.0477 26.7391C30.0741 26.7394 30.1005 26.7381 30.1268 26.7352L30.218 27.378C30.1492 27.3856 30.0799 27.389 30.0106 27.3881Z" fill="white"/>
<path d="M34.6754 25.1175C34.1994 25.1267 33.7319 24.9979 33.3355 24.7484C33.0405 24.566 32.6958 24.4688 32.3433 24.4688C31.9909 24.4688 31.6462 24.566 31.3512 24.7484C30.9512 24.9894 30.4869 25.1174 30.0127 25.1174C29.5386 25.1174 29.0742 24.9894 28.6742 24.7484C28.3796 24.5661 28.0353 24.469 27.6833 24.469C27.3313 24.469 26.9869 24.5661 26.6923 24.7484C26.2923 24.9895 25.828 25.1175 25.3538 25.1175C24.8797 25.1175 24.4153 24.9895 24.0154 24.7484C23.7208 24.5661 23.3764 24.469 23.0244 24.469C22.6724 24.469 22.328 24.5661 22.0334 24.7484C21.6376 24.998 21.1705 25.1268 20.6949 25.1175C20.2194 25.1268 19.7523 24.998 19.3565 24.7484C19.0661 24.5577 18.7189 24.4597 18.3655 24.4688C18.0122 24.4598 17.6652 24.5577 17.3748 24.7484C16.9797 24.9977 16.5133 25.1265 16.0384 25.1175C15.5628 25.1268 15.0956 24.998 14.6996 24.7484C14.4086 24.5573 14.0607 24.4593 13.7066 24.4688V23.8202C14.1821 23.8109 14.6492 23.9397 15.0451 24.1893C15.3357 24.38 15.6832 24.478 16.0367 24.4688C16.39 24.4779 16.7371 24.38 17.0274 24.1893C17.4226 23.94 17.8889 23.8111 18.3638 23.8202C18.8396 23.8106 19.3072 23.9395 19.7033 24.1893C19.9938 24.3801 20.3411 24.478 20.6946 24.4688C21.0481 24.478 21.3954 24.3801 21.6859 24.1893C22.0859 23.9482 22.5502 23.8201 23.0244 23.8201C23.4986 23.8201 23.9629 23.9482 24.3628 24.1893C24.6575 24.3717 25.0019 24.4688 25.354 24.4688C25.7061 24.4688 26.0505 24.3717 26.3451 24.1893C26.7451 23.9482 27.2094 23.8201 27.6836 23.8201C28.1578 23.8201 28.6221 23.9482 29.0221 24.1893C29.3167 24.3717 29.6611 24.4688 30.0132 24.4688C30.3653 24.4688 30.7097 24.3717 31.0044 24.1893C31.4047 23.9483 31.8694 23.8203 32.3439 23.8203C32.8183 23.8203 33.283 23.9483 33.6833 24.1893C33.9785 24.3716 34.3234 24.4687 34.6759 24.4687C35.0284 24.4687 35.3732 24.3716 35.6684 24.1893C36.0647 23.9399 36.5321 23.8111 37.0079 23.8202V24.4688C36.6536 24.4594 36.3054 24.5573 36.0142 24.7484C35.6181 24.9977 35.1509 25.1265 34.6754 25.1175Z" fill="white"/>
<path d="M29.7923 24.8425L29.1457 24.6278C29.3122 24.1749 29.3803 23.6948 29.3457 23.2165C29.3111 22.7381 29.1747 22.2713 28.9446 21.8441L26.5908 17.4816C26.5675 17.4385 26.5548 17.3911 26.5534 17.3427C26.5521 17.2943 26.5622 17.2463 26.583 17.2021C26.6038 17.1579 26.6347 17.1187 26.6736 17.0873C26.7125 17.0559 26.7583 17.0332 26.8077 17.0207L31.4984 15.8369C31.6513 15.7991 31.7822 15.7057 31.8626 15.577C31.9431 15.4483 31.9666 15.2947 31.928 15.1497C31.8894 15.0046 31.7919 14.8799 31.6567 14.8026C31.5214 14.7253 31.3594 14.7017 31.2058 14.7368L25.5285 16.0212C25.4072 16.0483 25.294 16.1015 25.1979 16.1767C25.1017 16.2519 25.0252 16.347 24.9741 16.4547C24.9231 16.5624 24.8989 16.6797 24.9035 16.7977C24.908 16.9157 24.9412 17.031 25.0005 17.1349L26.6864 20.0992C26.7292 20.1746 26.7387 20.2628 26.7131 20.3448C26.6874 20.4268 26.6286 20.4959 26.5493 20.5371L24.3734 21.6722L24.0427 21.104L25.9212 20.1239L24.3977 17.4424C24.2887 17.2509 24.2277 17.0383 24.2194 16.821C24.2111 16.6037 24.2557 16.3875 24.3498 16.1891C24.4438 15.9907 24.5849 15.8155 24.7619 15.6769C24.939 15.5384 25.1473 15.4402 25.3709 15.39L31.0454 14.106C31.3758 14.027 31.7258 14.0755 32.0184 14.2407C32.311 14.4059 32.5223 14.6744 32.6058 14.9871C32.6892 15.2997 32.6381 15.631 32.4635 15.9079C32.2889 16.1849 32.0053 16.3849 31.6749 16.4639L27.3937 17.5439L29.5552 21.5486C29.8274 22.0541 29.9887 22.6065 30.0294 23.1726C30.0702 23.7387 29.9895 24.3067 29.7923 24.8425Z" fill="white"/>
<path d="M22.8451 21.7339L18.6809 23.9056L19.0115 24.4735L23.1756 22.3017L22.8451 21.7339Z" fill="white"/>
<path d="M32.8959 22.6851C32.3876 22.6851 31.8907 22.5424 31.4681 22.2751C31.0455 22.0078 30.7161 21.6279 30.5216 21.1835C30.327 20.739 30.2761 20.2499 30.3753 19.7781C30.4745 19.3062 30.7192 18.8728 31.0787 18.5326C31.4381 18.1925 31.896 17.9608 32.3945 17.8669C32.8931 17.7731 33.4098 17.8212 33.8794 18.0053C34.349 18.1895 34.7504 18.5012 35.0328 18.9012C35.3152 19.3012 35.4659 19.7715 35.4659 20.2526C35.4652 20.8975 35.1942 21.5158 34.7124 21.9719C34.2306 22.4279 33.5773 22.6844 32.8959 22.6851ZM32.8959 18.4688C32.5232 18.4688 32.1588 18.5735 31.8489 18.7695C31.5389 18.9655 31.2974 19.2441 31.1547 19.57C31.0121 19.8959 30.9748 20.2546 31.0475 20.6006C31.1202 20.9466 31.2997 21.2645 31.5633 21.5139C31.8268 21.7634 32.1627 21.9333 32.5282 22.0021C32.8938 22.071 33.2728 22.0356 33.6171 21.9006C33.9615 21.7656 34.2559 21.537 34.463 21.2436C34.67 20.9503 34.7806 20.6054 34.7806 20.2526C34.7799 19.7797 34.5812 19.3264 34.2279 18.992C33.8746 18.6576 33.3956 18.4694 32.8959 18.4688Z" fill="white"/>
</svg>
