<svg width="50" height="48" viewBox="0 0 50 48" fill="none" xmlns="http://www.w3.org/2000/svg">
<rect width="49.658" height="48" rx="13" fill="#006380"/>
<path d="M17.4332 26.125C17.1197 26.125 16.8133 26.213 16.5527 26.3778C16.2921 26.5426 16.0889 26.7769 15.969 27.051C15.849 27.3251 15.8176 27.6267 15.8788 27.9176C15.9399 28.2086 16.0909 28.4759 16.3125 28.6857C16.5342 28.8954 16.8165 29.0383 17.124 29.0962C17.4314 29.1541 17.7501 29.1244 18.0396 29.0108C18.3292 28.8973 18.5768 28.705 18.7509 28.4584C18.925 28.2117 19.018 27.9217 19.018 27.625C19.018 27.2272 18.851 26.8456 18.5538 26.5643C18.2566 26.283 17.8535 26.125 17.4332 26.125ZM17.4332 28.375C17.2764 28.375 17.1232 28.331 16.9929 28.2486C16.8626 28.1662 16.761 28.0491 16.7011 27.912C16.6411 27.775 16.6254 27.6242 16.656 27.4787C16.6865 27.3332 16.762 27.1996 16.8728 27.0947C16.9837 26.9898 17.1249 26.9184 17.2786 26.8894C17.4323 26.8605 17.5916 26.8753 17.7364 26.9321C17.8812 26.9889 18.005 27.085 18.092 27.2083C18.1791 27.3317 18.2256 27.4767 18.2256 27.625C18.2256 27.8239 18.1421 28.0147 17.9935 28.1553C17.8449 28.296 17.6433 28.375 17.4332 28.375Z" fill="white"/>
<path d="M33.2814 26.125C32.968 26.125 32.6616 26.213 32.4009 26.3778C32.1403 26.5426 31.9372 26.7769 31.8172 27.051C31.6973 27.3251 31.6659 27.6267 31.727 27.9176C31.7882 28.2086 31.9391 28.4759 32.1608 28.6857C32.3824 28.8954 32.6648 29.0383 32.9722 29.0962C33.2797 29.1541 33.5983 29.1244 33.8879 29.0108C34.1775 28.8973 34.425 28.705 34.5992 28.4584C34.7733 28.2117 34.8662 27.9217 34.8662 27.625C34.8662 27.2272 34.6993 26.8456 34.4021 26.5643C34.1048 26.283 33.7017 26.125 33.2814 26.125ZM33.2814 28.375C33.1247 28.375 32.9715 28.331 32.8412 28.2486C32.7109 28.1662 32.6093 28.0491 32.5493 27.912C32.4894 27.775 32.4737 27.6242 32.5042 27.4787C32.5348 27.3332 32.6103 27.1996 32.7211 27.0947C32.8319 26.9898 32.9731 26.9184 33.1268 26.8894C33.2805 26.8605 33.4399 26.8753 33.5847 26.9321C33.7295 26.9889 33.8532 27.085 33.9403 27.2083C34.0274 27.3317 34.0738 27.4767 34.0738 27.625C34.0738 27.8239 33.9903 28.0147 33.8417 28.1553C33.6931 28.296 33.4916 28.375 33.2814 28.375Z" fill="white"/>
<path d="M21.7914 28H28.9232V28.75H21.7914V28Z" fill="white"/>
<path d="M21.7914 26.5H28.9232V27.25H21.7914V26.5Z" fill="white"/>
<path d="M24.1686 20.875H26.5459V21.625H24.1686V20.875Z" fill="white"/>
<path d="M37.2435 24.25V23.5C37.2426 23.2019 37.117 22.9163 36.8943 22.7055C36.6716 22.4947 36.3698 22.3759 36.0549 22.375H34.4859L33.6658 19.6525L33.4201 18.7263C33.3556 18.483 33.2072 18.2672 32.9983 18.113C32.7894 17.9587 32.5321 17.875 32.2671 17.875H28.9232V16.375C28.9225 16.1763 28.8388 15.9858 28.6904 15.8453C28.5419 15.7048 28.3407 15.6256 28.1307 15.625H22.5838C22.3739 15.6256 22.1727 15.7048 22.0242 15.8453C21.8757 15.9858 21.7921 16.1763 21.7914 16.375V17.875H18.4474C18.1825 17.875 17.9252 17.9587 17.7163 18.113C17.5074 18.2672 17.3589 18.483 17.2945 18.7263L17.0528 19.6487L16.2287 22.375H14.6597C14.3447 22.3759 14.043 22.4947 13.8202 22.7055C13.5975 22.9163 13.472 23.2019 13.4711 23.5V24.25C13.4717 24.44 13.5233 24.6267 13.621 24.7926C13.7187 24.9586 13.8594 25.0983 14.0297 25.1987C13.6716 25.5471 13.4711 26.0139 13.4711 26.5V31C13.4716 31.1573 13.5072 31.3128 13.5754 31.4562C13.6437 31.5996 13.7432 31.7279 13.8673 31.8325V33.25C13.8682 33.5481 13.9937 33.8337 14.2165 34.0445C14.4392 34.2553 14.7409 34.3741 15.0559 34.375H18.2256C18.5405 34.3741 18.8423 34.2553 19.065 34.0445C19.2877 33.8337 19.4132 33.5481 19.4142 33.25V32.125H31.3004V33.25C31.3013 33.5481 31.4269 33.8337 31.6496 34.0445C31.8723 34.2553 32.1741 34.3741 32.489 34.375H35.6587C35.9736 34.3741 36.2754 34.2553 36.4981 34.0445C36.7208 33.8337 36.8464 33.5481 36.8473 33.25V31.8325C36.9714 31.7279 37.0709 31.5996 37.1391 31.4562C37.2074 31.3128 37.243 31.1573 37.2435 31V26.5C37.2435 26.0139 37.043 25.5471 36.6849 25.1987C36.8552 25.0983 36.9959 24.9586 37.0936 24.7926C37.1913 24.6267 37.2429 24.44 37.2435 24.25ZM22.5838 16.375H28.1307V17.875H22.5838V16.375ZM18.0631 18.91C18.0843 18.8287 18.1337 18.7565 18.2034 18.7048C18.273 18.6532 18.3589 18.6251 18.4474 18.625H32.2671C32.3556 18.6251 32.4415 18.6532 32.5112 18.7048C32.5809 18.7565 32.6302 18.8287 32.6515 18.91L32.7743 19.375H17.9403L18.0631 18.91ZM17.7303 20.125H32.9843L34.3393 24.625H22.9444C22.8513 24.1009 22.5649 23.6251 22.1363 23.2819C21.7076 22.9387 21.1643 22.7504 20.6028 22.7504C20.0413 22.7504 19.498 22.9387 19.0693 23.2819C18.6407 23.6251 18.3543 24.1009 18.2612 24.625H16.3753L17.7303 20.125ZM22.1322 24.625H19.0734C19.1599 24.3032 19.3573 24.0179 19.6342 23.8141C19.9112 23.6103 20.252 23.4997 20.6028 23.4997C20.9536 23.4997 21.2944 23.6103 21.5714 23.8141C21.8483 24.0179 22.0457 24.3032 22.1322 24.625ZM14.2635 23.5C14.2635 23.4005 14.3052 23.3052 14.3795 23.2348C14.4538 23.1645 14.5546 23.125 14.6597 23.125H16.0028L15.5512 24.625H14.6597C14.5546 24.625 14.4538 24.5855 14.3795 24.5152C14.3052 24.4448 14.2635 24.3495 14.2635 24.25V23.5ZM18.6218 33.25C18.6218 33.3495 18.58 33.4448 18.5057 33.5152C18.4314 33.5855 18.3306 33.625 18.2256 33.625H15.0559C14.9508 33.625 14.85 33.5855 14.7757 33.5152C14.7014 33.4448 14.6597 33.3495 14.6597 33.25V32.125H18.6218V33.25ZM36.0549 33.25C36.0549 33.3495 36.0131 33.4448 35.9388 33.5152C35.8645 33.5855 35.7638 33.625 35.6587 33.625H32.489C32.3839 33.625 32.2832 33.5855 32.2089 33.5152C32.1346 33.4448 32.0928 33.3495 32.0928 33.25V32.125H36.0549V33.25ZM36.4511 31C36.4511 31.0995 36.4094 31.1948 36.335 31.2652C36.2607 31.3355 36.16 31.375 36.0549 31.375H14.6597C14.5546 31.375 14.4538 31.3355 14.3795 31.2652C14.3052 31.1948 14.2635 31.0995 14.2635 31V30.625H36.4511V31ZM36.4511 29.875H14.2635V26.5C14.2644 26.2019 14.39 25.9163 14.6127 25.7055C14.8354 25.4947 15.1372 25.3759 15.4521 25.375H35.2625C35.5774 25.3759 35.8792 25.4947 36.1019 25.7055C36.3246 25.9163 36.4502 26.2019 36.4511 26.5V29.875ZM36.4511 24.25C36.4511 24.3495 36.4094 24.4448 36.335 24.5152C36.2607 24.5855 36.16 24.625 36.0549 24.625H35.1634L34.7117 23.125H36.0549C36.16 23.125 36.2607 23.1645 36.335 23.2348C36.4094 23.3052 36.4511 23.4005 36.4511 23.5V24.25Z" fill="white"/>
</svg>
