<svg width="93" height="117" viewBox="0 0 93 117" fill="none" xmlns="http://www.w3.org/2000/svg">
<path fill-rule="evenodd" clip-rule="evenodd" d="M68.2389 104.819C76.0028 99.8153 83.7669 94.8118 91.5866 89.8957C92.28 89.4575 92.8236 90.5782 92.1598 91.0206L92.0113 91.1194C89.1814 93.003 86.3553 94.8841 83.509 96.7411C73.3259 103.376 63.1435 110.012 52.9619 116.649C52.6567 116.797 52.2931 116.75 52.0357 116.53C51.7783 116.31 51.676 115.959 51.7751 115.634C52.524 114.015 53.2623 112.389 54.0007 110.764C54.8326 108.932 55.6646 107.1 56.512 105.276C61.841 93.8122 67.1693 82.3487 72.497 70.8856C73.2953 70.5431 74.0948 70.2031 74.8954 69.8656L73.5172 68.6905C73.1771 69.4222 72.8371 70.1539 72.497 70.8856C70.5598 71.7166 68.6295 72.5619 66.7061 73.4216C57.1468 77.7004 47.7752 82.3439 38.5913 87.3522C38.1669 87.5533 37.661 87.453 37.3461 87.1054C37.0312 86.7578 36.9815 86.2448 37.2239 85.8427L42.1565 76.87C47.5204 67.1793 52.8844 57.4902 58.2484 47.8027C59.0934 47.5247 59.9397 47.2511 60.7873 46.9818L59.6341 45.3002C59.1722 46.1343 58.7103 46.9685 58.2484 47.8027C56.468 48.3884 54.6935 48.9934 52.9251 49.6175C43.7951 52.8504 34.8389 56.5548 26.0926 60.7159C25.6281 60.937 25.0738 60.8278 24.7287 60.4472C24.3836 60.0666 24.3294 59.5047 24.5952 59.0645C29.408 51.0943 34.2196 43.1233 39.0301 35.1514C40.1266 34.7471 41.2178 34.328 42.3035 33.8942L40.7951 32.2264C40.2068 33.2014 39.6185 34.1764 39.0301 35.1514C33.459 37.2059 27.7532 38.8789 21.9524 40.1583C21.4914 40.2424 21.0243 40.0482 20.7595 39.6623C20.4947 39.2764 20.4817 38.7709 20.7263 38.3713C23.8528 34.4764 26.533 30.2462 28.7179 25.7601C29.3011 25.7898 29.8843 25.8196 30.4676 25.8494L29.4082 24.2981C29.1839 24.7884 28.9538 25.2757 28.7179 25.7601C26.2737 25.6357 23.8295 25.5125 21.3853 25.3905L19.2099 25.2849C18.5955 25.3202 17.9792 25.2779 17.3755 25.1589C16.7376 24.7736 16.2033 24.2388 15.8186 23.6008L14.6202 22.1698C12.9761 20.1929 11.3767 18.1796 9.82182 16.1298C7.81119 13.4732 5.87039 10.7699 3.99942 8.02014C4.04512 8.59332 4.08809 9.16628 4.13106 9.73929C4.16415 10.1805 4.19723 10.6218 4.23158 11.0632C4.24374 11.2269 4.25448 11.3909 4.26523 11.5552C4.28822 11.9065 4.31126 12.2585 4.34833 12.6087C4.467 13.1776 4.40188 13.7646 4.16289 14.28C4.00818 14.5212 3.73828 14.657 3.45229 14.6377C3.16631 14.6183 2.90638 14.4466 2.76795 14.1855C2.4982 13.6502 2.38042 13.0523 2.42838 12.4618L2.33115 10.9176C2.31069 10.5905 2.28977 10.2634 2.26884 9.93625C2.21844 9.14843 2.16803 8.36045 2.12409 7.57198L1.97753 4.98884C1.5883 4.39347 1.20226 3.79598 0.819416 3.19635C0.647502 2.85024 0.645121 2.44404 0.812973 2.09554C0.980825 1.74703 1.30013 1.49522 1.6783 1.4131C1.75085 1.39731 1.82348 1.38212 1.89617 1.36754C1.90775 1.21125 1.92158 1.05517 1.93766 0.899341L1.94194 0.903152C1.93857 0.958025 1.94189 1.01442 1.95256 1.07132C1.96202 1.16564 1.96665 1.25986 1.96651 1.35363C2.09993 1.32759 2.23357 1.30358 2.3674 1.28159L1.94194 0.903152C1.95958 0.615896 2.1604 0.370533 2.44782 0.314642C2.79015 0.248076 3.13108 0.474425 3.21715 0.825406C3.24424 0.937287 3.27018 1.04938 3.295 1.16168C5.80583 0.92434 8.34433 1.38744 10.6218 2.51541C11.2001 2.89216 11.3681 3.6632 10.9992 4.24704C10.6117 4.81237 9.85102 4.97897 9.26342 4.62718C7.62016 3.85026 5.81766 3.50009 4.02049 3.59471C3.87652 3.37312 3.733 3.15123 3.58992 2.92903C3.61604 3.15903 3.63748 3.38946 3.65421 3.62016C3.77624 3.60962 3.89835 3.60114 4.02049 3.59471C8.38392 10.3109 13.1582 16.7517 18.3162 22.8806C18.1482 22.8717 17.9801 22.8627 17.812 22.8537L18.6161 23.236C18.516 23.1177 18.416 22.9992 18.3162 22.8806C21.6336 23.0563 24.9522 23.2124 28.2715 23.3687C29.0501 23.4053 29.8287 23.4419 30.6073 23.4788C30.9733 23.5034 31.3077 23.6944 31.5143 23.997C31.721 24.2996 31.7771 24.6804 31.6667 25.0301C29.7428 29.2948 27.3851 33.3477 24.6324 37.1254C23.5851 37.3814 22.5343 37.6238 21.4803 37.8528L22.7075 39.6419C23.369 38.8176 24.0108 37.9785 24.6324 37.1254C30.2851 35.7441 35.8364 33.971 41.246 31.8186C41.7146 31.5984 42.2718 31.7097 42.619 32.0928C42.9663 32.4759 43.0221 33.041 42.7566 33.4852C38.0075 41.3402 33.2581 49.1961 28.5084 57.0528C27.3492 57.5786 26.1942 58.113 25.0439 58.6577L26.5391 60.3103C27.1955 59.2245 27.852 58.1386 28.5084 57.0528C29.8802 56.4306 31.2578 55.8206 32.6403 55.2201C41.6931 51.285 50.9394 47.8114 60.3435 44.8126C60.7766 44.738 61.2132 44.9222 61.4613 45.2842C61.7095 45.6462 61.7238 46.1196 61.4979 46.4964C59.8431 49.4809 58.1875 52.4639 56.5313 55.4454C51.2988 64.9049 46.0488 74.3547 40.7814 83.795C39.7295 84.3496 38.6802 84.9087 37.6335 85.4723L39.0031 86.9807C39.5961 85.9189 40.1889 84.857 40.7814 83.795C42.3628 82.9613 43.95 82.1377 45.5431 81.3243C54.8687 76.5618 64.3564 72.1605 74.0063 68.1207C74.6974 67.8288 75.7798 68.4503 75.3834 69.2936L70.5522 79.6234C65.2283 90.9524 59.9042 102.281 54.5797 113.609C53.7844 114.12 52.989 114.631 52.1936 115.142L53.3826 116.156C53.7817 115.307 54.1807 114.458 54.5797 113.609C56.6883 112.254 58.7969 110.898 60.9054 109.541C63.3511 107.969 65.795 106.394 68.2389 104.819Z" fill="#FFD5CE"/>
</svg>
