<svg width="88" height="48" viewBox="0 0 88 48" fill="none" xmlns="http://www.w3.org/2000/svg">
<path fill-rule="evenodd" clip-rule="evenodd" d="M14.2382 14.8617C9.7191 10.4679 5.57976 5.6975 1.86554 0.602867L1.86612 0.602447C1.4741 0.0799122 0.508865 0.544797 0.828876 1.15979C4.31152 7.60573 8.89222 13.3971 14.3615 18.2692C23.9499 27.0207 35.362 33.5103 47.7497 37.2559C53.9656 39.1608 60.3721 40.3474 66.8441 40.7923C70.3215 40.9983 73.8036 40.9918 77.2709 40.7738L77.3342 40.7447C78.873 40.0413 80.4126 39.343 81.956 38.653C82.6745 39.181 83.6947 38.6414 83.6869 37.8839C84.3085 37.6093 84.931 37.3363 85.5544 37.0651L86.189 39.7398C83.2354 40.241 80.2586 40.5859 77.2709 40.7738L73.4683 42.5177C73.7138 42.4952 73.9598 42.6029 74.1105 42.8104C74.2949 43.0641 74.2933 43.4074 74.1067 43.6562C73.4212 44.4745 72.675 45.1972 71.9201 45.9283C71.6658 46.1746 71.4105 46.4219 71.1563 46.674L69.177 44.5998C68.6938 44.9789 68.4941 45.6427 68.7236 46.2492C69 46.9797 69.8006 47.366 70.5368 47.1241C71.9526 46.6173 73.3267 46.0022 74.6471 45.2842L78.5629 43.4606C81.2335 42.2206 83.892 40.9537 86.5383 39.6599C87.1736 39.4066 87.5286 38.7278 87.3774 38.0556C87.222 37.3799 86.5907 36.9211 85.9041 36.985C85.1202 37.1387 84.3341 37.2793 83.5462 37.4066C83.5208 37.3633 83.4917 37.3199 83.4588 37.2765C82.2376 35.6511 80.848 34.1593 79.3131 32.8261C78.5087 32.1436 77.6585 31.5169 76.7685 30.9504C76.0791 30.3769 75.2384 30.0156 74.3479 29.91C74.073 29.9383 73.8266 30.0923 73.6808 30.3271C73.535 30.5619 73.5062 30.8511 73.6027 31.11C74.0823 31.8298 74.7233 32.4276 75.4746 32.856C76.1632 33.3746 76.8287 33.9251 77.495 34.4762C77.5504 34.522 77.6058 34.5678 77.6612 34.6137C78.8595 35.5986 80.0019 36.6493 81.0832 37.7607C75.6809 38.442 70.2081 38.5068 64.7699 37.9503C52.2291 36.7296 40.0899 32.7335 29.2288 26.2507C23.8287 23.0237 18.8005 19.2036 14.2382 14.8617ZM71.7837 43.2354C72.2629 43.0181 72.7481 42.8139 73.2389 42.6229L73.4683 42.5177C73.4135 42.5227 73.3586 42.5342 73.3049 42.5526C72.7822 42.7603 72.279 42.9918 71.7837 43.2354ZM71.7837 43.2354C70.8887 43.6413 70.0148 44.0926 69.1655 44.5877L69.177 44.5998C69.2759 44.5221 69.3867 44.4564 69.5082 44.4056C69.8184 44.2479 70.1245 44.088 70.4295 43.9288C70.8804 43.6933 71.3288 43.4592 71.7837 43.2354Z" fill="#FFD5CE"/>
</svg>
