<svg width="48" height="48" viewBox="0 0 48 48" fill="none" xmlns="http://www.w3.org/2000/svg">
<path fill-rule="evenodd" clip-rule="evenodd" d="M24 5C34.4934 5 43 13.5066 43 24C43 34.4934 34.4934 43 24 43C13.5066 43 5 34.4934 5 24C5 13.5066 13.5066 5 24 5ZM45 24C45 12.402 35.598 3 24 3C12.402 3 3 12.402 3 24C3 35.598 12.402 45 24 45C35.598 45 45 35.598 45 24Z" fill="#828282"/>
<path fill-rule="evenodd" clip-rule="evenodd" d="M24.7071 15.2929C24.3166 14.9024 23.6834 14.9024 23.2929 15.2929L15.2929 23.2929C14.9024 23.6834 14.9024 24.3166 15.2929 24.7071L23.2929 32.7071C23.6834 33.0976 24.3166 33.0976 24.7071 32.7071C25.0976 32.3166 25.0976 31.6834 24.7071 31.2929L17.4142 24L24.7071 16.7071C25.0976 16.3166 25.0976 15.6834 24.7071 15.2929Z" fill="#828282"/>
<path fill-rule="evenodd" clip-rule="evenodd" d="M33 24C33 23.4477 32.5523 23 32 23H16C15.4477 23 15 23.4477 15 24C15 24.5523 15.4477 25 16 25H32C32.5523 25 33 24.5523 33 24Z" fill="#828282"/>
</svg>
