<svg width="32" height="32" viewBox="0 0 32 32" fill="none" xmlns="http://www.w3.org/2000/svg">
<g clip-path="url(#clip0_14_4379)">
<path fill-rule="evenodd" clip-rule="evenodd" d="M32 6.14409C32 2.75321 29.3064 0.000244141 25.9901 0.000244141H6.00987C2.69362 0.000244141 9.53674e-07 2.75321 9.53674e-07 6.14409V25.8561C9.53674e-07 29.2461 2.69362 32 6.00989 32H25.9901C29.3064 32 32 29.2461 32 25.8561L32 6.14409Z" fill="#D8AE5E"/>
<path fill-rule="evenodd" clip-rule="evenodd" d="M0.0010891 19.8799H15.9832V31.9998H0.00110081L0.0010891 19.8799Z" fill="#D8AE5E"/>
<path d="M14.5433 21.1812L11.966 21.1785V18.0274C11.966 17.3541 12.2214 17.0037 12.7849 16.9237H14.5433C15.7974 16.9237 16.6086 17.7321 16.6086 19.0406C16.6086 20.3845 15.8179 21.1799 14.5433 21.1812ZM11.966 12.6819V11.8524C11.966 11.1267 12.2663 10.7815 12.9248 10.7369H14.2443C15.3751 10.7369 16.0528 11.4285 16.0528 12.5874C16.0528 13.4694 15.5881 14.4996 14.2853 14.4996H11.966V12.6819ZM17.8343 15.8265L17.3684 15.5587L17.7753 15.2031C18.2489 14.787 19.0422 13.8513 19.0422 12.237C19.0422 9.76437 17.1669 8.16977 14.2648 8.16977H10.9532V8.16846H10.5759C9.71588 8.20127 9.02661 8.91655 9.01763 9.80113V23.831H14.3302C17.5558 23.831 19.6377 22.0356 19.6377 19.2545C19.6377 17.757 18.9652 16.4774 17.8343 15.8265Z" fill="white"/>
<path d="M21.0214 21.8929C21.0214 20.8212 21.8667 19.9541 22.9083 19.9541C23.9525 19.9541 24.8019 20.8212 24.8019 21.8929C24.8019 22.9633 23.9525 23.8318 22.9083 23.8318C21.8667 23.8318 21.0214 22.9633 21.0214 21.8929Z" fill="#F4F4F4"/>
</g>
<defs>
<clipPath id="clip0_14_4379">
<rect width="32" height="32" fill="white"/>
</clipPath>
</defs>
</svg>
