<svg width="48" height="33" viewBox="0 0 48 33" fill="none" xmlns="http://www.w3.org/2000/svg">
<path fill-rule="evenodd" clip-rule="evenodd" d="M35.6036 9.66553C35.6036 9.66553 31.7117 21.7903 31.3946 22.7912C31.2793 21.7617 28.4252 0 28.4252 0C21.7946 0 18.2487 4.68977 16.3748 9.63693C16.3748 9.63693 11.6469 21.7903 11.2432 22.8198C11.2144 21.8761 10.5225 9.77989 10.5225 9.77989C10.1189 3.7175 4.52613 0.0285952 0 0.0285952L5.47748 33C12.4252 32.9714 16.1729 28.3102 18.1333 23.3631C18.1333 23.3631 22.3135 12.6395 22.4865 12.1534C22.5153 12.6109 25.4847 33 25.4847 33C32.4613 33 36.209 28.6248 38.227 23.8492L48 0.0285952C41.1099 0.0285952 37.4775 4.68978 35.6036 9.66553Z" fill="white"/>
</svg>
