<svg width="105" height="20" viewBox="0 0 105 20" fill="none" xmlns="http://www.w3.org/2000/svg">
<path d="M4.196 19H0.464V1.3H6.524C7.876 1.3 9.032 1.564 9.992 2.092C10.96 2.612 11.696 3.32 12.2 4.216C12.712 5.104 12.968 6.108 12.968 7.228C12.968 8.34 12.708 9.36 12.188 10.288C11.676 11.208 10.94 11.948 9.98 12.508C9.02 13.06 7.868 13.336 6.524 13.336H4.196V19ZM4.196 12.184L2.516 10.456H6.128C6.752 10.456 7.296 10.332 7.76 10.084C8.224 9.828 8.584 9.46 8.84 8.98C9.096 8.492 9.224 7.908 9.224 7.228C9.224 6.54 9.096 5.972 8.84 5.524C8.592 5.068 8.236 4.732 7.772 4.516C7.316 4.292 6.768 4.18 6.128 4.18H2.516L4.196 2.404V12.184ZM16.1066 13.744V11.284H24.5546L24.1946 11.908C24.1946 11.844 24.1946 11.784 24.1946 11.728C24.1946 11.664 24.1946 11.604 24.1946 11.548C24.1946 11.092 24.0866 10.656 23.8706 10.24C23.6546 9.816 23.3186 9.472 22.8626 9.208C22.4146 8.936 21.8386 8.8 21.1346 8.8C20.4306 8.8 19.8226 8.952 19.3106 9.256C18.8066 9.552 18.4186 9.98 18.1466 10.54C17.8826 11.1 17.7506 11.776 17.7506 12.568C17.7506 13.384 17.8786 14.084 18.1346 14.668C18.3986 15.244 18.7866 15.688 19.2986 16C19.8186 16.312 20.4626 16.468 21.2306 16.468C21.7266 16.468 22.1546 16.424 22.5146 16.336C22.8746 16.24 23.1666 16.12 23.3906 15.976C23.6226 15.832 23.7986 15.672 23.9186 15.496C24.0386 15.32 24.1106 15.148 24.1346 14.98H27.8066C27.7586 15.516 27.5746 16.044 27.2546 16.564C26.9346 17.076 26.4906 17.54 25.9226 17.956C25.3546 18.364 24.6626 18.688 23.8466 18.928C23.0386 19.168 22.1146 19.288 21.0746 19.288C19.6666 19.288 18.4386 19.008 17.3906 18.448C16.3426 17.88 15.5306 17.1 14.9546 16.108C14.3786 15.108 14.0906 13.956 14.0906 12.652C14.0906 11.332 14.3826 10.176 14.9666 9.184C15.5586 8.184 16.3786 7.408 17.4266 6.856C18.4826 6.296 19.7026 6.016 21.0866 6.016C22.5026 6.016 23.7266 6.3 24.7586 6.868C25.7906 7.428 26.5866 8.216 27.1466 9.232C27.7066 10.24 27.9866 11.416 27.9866 12.76C27.9866 12.96 27.9826 13.152 27.9746 13.336C27.9666 13.52 27.9546 13.656 27.9386 13.744H16.1066ZM30.3114 19V6.256H34.0434V10.648L33.2754 10.168C33.3634 9.568 33.5234 9.016 33.7554 8.512C33.9874 8.008 34.2874 7.572 34.6554 7.204C35.0234 6.828 35.4594 6.536 35.9634 6.328C36.4754 6.12 37.0594 6.016 37.7154 6.016C38.2274 6.016 38.6274 6.056 38.9154 6.136C39.2114 6.208 39.3954 6.264 39.4674 6.304L38.8554 9.64C38.7834 9.6 38.6234 9.536 38.3754 9.448C38.1274 9.36 37.8074 9.316 37.4154 9.316C36.7754 9.316 36.2394 9.424 35.8074 9.64C35.3754 9.856 35.0274 10.144 34.7634 10.504C34.5074 10.856 34.3234 11.248 34.2114 11.68C34.0994 12.112 34.0434 12.548 34.0434 12.988V19H30.3114ZM46.4201 19.288C45.6601 19.288 44.9281 19.2 44.2241 19.024C43.5201 18.848 42.8881 18.588 42.3281 18.244C41.7761 17.9 41.3361 17.472 41.0081 16.96C40.6881 16.44 40.5281 15.836 40.5281 15.148C40.5281 15.116 40.5281 15.08 40.5281 15.04C40.5281 14.992 40.5281 14.956 40.5281 14.932H44.2241C44.2241 14.956 44.2241 14.984 44.2241 15.016C44.2241 15.04 44.2241 15.068 44.2241 15.1C44.2241 15.564 44.4281 15.904 44.8361 16.12C45.2521 16.336 45.8121 16.444 46.5161 16.444C46.8841 16.444 47.2361 16.408 47.5721 16.336C47.9161 16.256 48.1961 16.132 48.4121 15.964C48.6361 15.788 48.7481 15.568 48.7481 15.304C48.7481 14.88 48.5121 14.58 48.0401 14.404C47.5761 14.228 46.8281 14.052 45.7961 13.876C45.2121 13.78 44.6201 13.644 44.0201 13.468C43.4201 13.292 42.8681 13.06 42.3641 12.772C41.8601 12.476 41.4561 12.104 41.1521 11.656C40.8481 11.2 40.6961 10.648 40.6961 10C40.6961 9.136 40.9561 8.408 41.4761 7.816C42.0041 7.224 42.7041 6.776 43.5761 6.472C44.4481 6.168 45.4081 6.016 46.4561 6.016C47.4561 6.016 48.3881 6.184 49.2521 6.52C50.1161 6.848 50.8161 7.324 51.3521 7.948C51.8881 8.564 52.1561 9.308 52.1561 10.18C52.1561 10.196 52.1561 10.22 52.1561 10.252C52.1561 10.284 52.1561 10.316 52.1561 10.348H48.4961C48.4961 10.316 48.4961 10.288 48.4961 10.264C48.4961 10.24 48.4961 10.22 48.4961 10.204C48.4961 9.884 48.3921 9.624 48.1841 9.424C47.9841 9.224 47.7281 9.076 47.4161 8.98C47.1041 8.876 46.7801 8.824 46.4441 8.824C46.1401 8.824 45.8241 8.86 45.4961 8.932C45.1761 8.996 44.9041 9.108 44.6801 9.268C44.4561 9.42 44.3441 9.636 44.3441 9.916C44.3441 10.188 44.4641 10.412 44.7041 10.588C44.9441 10.756 45.2801 10.896 45.7121 11.008C46.1441 11.112 46.6441 11.212 47.2121 11.308C47.7481 11.396 48.3121 11.52 48.9041 11.68C49.5041 11.832 50.0641 12.052 50.5841 12.34C51.1121 12.62 51.5361 12.992 51.8561 13.456C52.1841 13.912 52.3481 14.492 52.3481 15.196C52.3481 15.924 52.1801 16.548 51.8441 17.068C51.5081 17.588 51.0521 18.012 50.4761 18.34C49.9081 18.66 49.2721 18.896 48.5681 19.048C47.8721 19.208 47.1561 19.288 46.4201 19.288ZM61.0469 19.276C59.6709 19.276 58.4589 18.992 57.4109 18.424C56.3629 17.856 55.5429 17.076 54.9509 16.084C54.3669 15.084 54.0749 13.932 54.0749 12.628C54.0749 11.332 54.3669 10.188 54.9509 9.196C55.5429 8.196 56.3629 7.42 57.4109 6.868C58.4589 6.308 59.6709 6.028 61.0469 6.028C62.4229 6.028 63.6349 6.308 64.6829 6.868C65.7309 7.42 66.5469 8.196 67.1309 9.196C67.7229 10.188 68.0189 11.332 68.0189 12.628C68.0189 13.932 67.7229 15.084 67.1309 16.084C66.5469 17.076 65.7309 17.856 64.6829 18.424C63.6349 18.992 62.4229 19.276 61.0469 19.276ZM61.0469 16.324C61.6949 16.324 62.2589 16.172 62.7389 15.868C63.2189 15.564 63.5909 15.136 63.8549 14.584C64.1189 14.024 64.2509 13.372 64.2509 12.628C64.2509 11.884 64.1189 11.24 63.8549 10.696C63.5909 10.144 63.2189 9.72 62.7389 9.424C62.2589 9.128 61.6949 8.98 61.0469 8.98C60.4069 8.98 59.8429 9.128 59.3549 9.424C58.8749 9.72 58.5029 10.144 58.2389 10.696C57.9749 11.24 57.8429 11.884 57.8429 12.628C57.8429 13.372 57.9749 14.024 58.2389 14.584C58.5029 15.136 58.8749 15.564 59.3549 15.868C59.8429 16.172 60.4069 16.324 61.0469 16.324ZM79.3186 19V13.588C79.3186 13.284 79.3186 13.008 79.3186 12.76C79.3186 12.512 79.3186 12.288 79.3186 12.088C79.3186 11.56 79.2506 11.08 79.1146 10.648C78.9786 10.208 78.7346 9.856 78.3826 9.592C78.0306 9.328 77.5226 9.196 76.8586 9.196C76.2826 9.196 75.7826 9.328 75.3586 9.592C74.9426 9.856 74.6226 10.224 74.3986 10.696C74.1746 11.168 74.0626 11.712 74.0626 12.328L73.0306 11.584C73.0306 10.48 73.2706 9.512 73.7506 8.68C74.2306 7.848 74.8786 7.196 75.6946 6.724C76.5186 6.252 77.4306 6.016 78.4306 6.016C79.4786 6.016 80.3386 6.228 81.0106 6.652C81.6906 7.068 82.1946 7.652 82.5226 8.404C82.8586 9.148 83.0266 10.02 83.0266 11.02C83.0266 11.428 83.0266 11.884 83.0266 12.388C83.0266 12.892 83.0266 13.408 83.0266 13.936V19H79.3186ZM70.3426 19V6.256H74.0626V19H70.3426ZM90.1314 19.264C89.2034 19.264 88.3754 19.116 87.6474 18.82C86.9274 18.524 86.3634 18.096 85.9554 17.536C85.5474 16.976 85.3434 16.296 85.3434 15.496C85.3434 14.592 85.5914 13.856 86.0874 13.288C86.5834 12.72 87.2394 12.288 88.0554 11.992C88.8794 11.688 89.7714 11.488 90.7314 11.392C92.1314 11.256 93.0954 11.132 93.6234 11.02C94.1594 10.908 94.4274 10.712 94.4274 10.432C94.4274 10.424 94.4274 10.416 94.4274 10.408C94.4274 9.936 94.1994 9.564 93.7434 9.292C93.2954 9.02 92.6674 8.884 91.8594 8.884C91.0034 8.884 90.3474 9.04 89.8914 9.352C89.4434 9.656 89.2194 10.124 89.2194 10.756H85.5594C85.5594 9.732 85.8354 8.868 86.3874 8.164C86.9474 7.46 87.7034 6.928 88.6554 6.568C89.6074 6.2 90.6834 6.016 91.8834 6.016C93.0034 6.016 94.0394 6.188 94.9914 6.532C95.9434 6.868 96.7074 7.376 97.2834 8.056C97.8674 8.736 98.1594 9.6 98.1594 10.648C98.1594 10.816 98.1594 10.984 98.1594 11.152C98.1594 11.312 98.1594 11.476 98.1594 11.644V16.156C98.1594 16.484 98.1674 16.8 98.1834 17.104C98.2074 17.4 98.2554 17.672 98.3274 17.92C98.4074 18.2 98.5074 18.432 98.6274 18.616C98.7474 18.8 98.8474 18.928 98.9274 19H95.2674C95.2114 18.944 95.1234 18.828 95.0034 18.652C94.8914 18.476 94.7954 18.272 94.7154 18.04C94.6194 17.76 94.5474 17.48 94.4994 17.2C94.4594 16.912 94.4394 16.576 94.4394 16.192L95.2074 16.72C94.9834 17.248 94.6194 17.704 94.1154 18.088C93.6194 18.464 93.0274 18.756 92.3394 18.964C91.6594 19.164 90.9234 19.264 90.1314 19.264ZM91.1274 16.48C91.7114 16.48 92.2554 16.376 92.7594 16.168C93.2714 15.952 93.6874 15.616 94.0074 15.16C94.3274 14.704 94.4874 14.108 94.4874 13.372V12.088L95.4114 12.988C94.8834 13.18 94.2714 13.34 93.5754 13.468C92.8874 13.588 92.1994 13.684 91.5114 13.756C90.6954 13.836 90.0834 13.976 89.6754 14.176C89.2754 14.368 89.0754 14.696 89.0754 15.16C89.0754 15.6 89.2474 15.932 89.5914 16.156C89.9354 16.372 90.4474 16.48 91.1274 16.48ZM104.734 0.243999V19H101.062V0.243999H104.734Z" fill="white"/>
</svg>
