<svg width="12" height="16" viewBox="0 0 12 16" fill="none" xmlns="http://www.w3.org/2000/svg">
<path fill-rule="evenodd" clip-rule="evenodd" d="M6.375 0C3.16875 0 0 2.19271 0 5.74145C0 7.99827 1.2375 9.28056 1.9875 9.28056C2.29688 9.28056 2.475 8.39578 2.475 8.14574C2.475 7.8476 1.73438 7.21287 1.73438 5.97226C1.73438 3.39486 3.64687 1.5676 6.12187 1.5676C8.25 1.5676 9.825 2.80821 9.825 5.08748C9.825 6.78972 9.15938 9.98261 7.00313 9.98261C6.225 9.98261 5.55937 9.40559 5.55937 8.57851C5.55937 7.36675 6.38438 6.19345 6.38438 4.94322C6.38438 2.82103 3.45 3.20572 3.45 5.7703C3.45 6.30886 3.51562 6.90512 3.75 7.3956C3.31875 9.2998 2.4375 12.1369 2.4375 14.0988C2.4375 14.7046 2.52187 15.3009 2.57812 15.9068C2.68438 16.0286 2.63125 16.0158 2.79375 15.9549C4.36875 13.7429 4.3125 13.3102 5.025 10.4154C5.40938 11.1655 6.40313 11.5694 7.19063 11.5694C10.5094 11.5694 12 8.25152 12 5.26059C12 2.07731 9.31875 0 6.375 0Z" fill="white"/>
</svg>
