<svg width="122" height="148" viewBox="0 0 122 148" fill="none" xmlns="http://www.w3.org/2000/svg">
<path fill-rule="evenodd" clip-rule="evenodd" d="M21.3938 144.185C14.589 145.667 7.48505 144.952 1.10879 142.142L0.36675 144.911C3.60885 146.449 7.10366 147.385 10.6803 147.675C18.0542 148.643 25.5344 147.055 31.8681 143.175C36.7869 140.022 40.7731 135.658 43.4643 130.536C42.4761 130.242 41.5016 129.901 40.5443 129.513C39.9018 130.874 39.1527 132.191 38.3003 133.45C34.0473 138.836 28.0871 142.62 21.3938 144.185ZM41.7615 126.518C41.4116 127.536 41.0054 128.536 40.5443 129.513C38.6264 128.737 36.7771 127.775 35.0243 126.636C29.0086 123.405 24.5145 117.933 22.5221 111.414C21.814 107.463 22.9014 103.404 25.4903 100.336C27.2206 98.0051 29.7733 96.4163 32.6338 95.8901C38.2188 96.3049 43.0581 99.9183 45.0333 105.149C48.1259 111.888 48.2178 119.615 45.2865 126.418C45.2265 126.582 45.1653 126.747 45.1028 126.91C45.8227 126.951 46.5455 126.964 47.2698 126.949C53.5185 127.816 59.8836 127.037 65.7322 124.688C78.3953 117.828 88.3628 106.904 94.0224 93.6822C97.5955 86.0717 99.326 77.7992 99.1627 69.517C96.6698 70.8804 93.986 71.9113 91.1772 72.5668C84.2465 73.8385 77.1064 71.9253 71.7401 67.3587C66.4302 63.3058 63.6578 56.7583 64.4495 50.1404C65.378 43.8606 69.5503 38.5358 75.4331 36.1226C82.6454 33.5762 90.6907 35.7319 95.6635 41.5433C100.212 48.0001 102.915 55.4238 103.67 63.0519C107.782 58.9032 110.849 53.8127 112.587 48.1981C117.455 35.7545 117.033 21.8631 111.417 9.72279C110.762 7.66734 109.89 5.68981 108.817 3.82302L103.665 14.854L107.269 1.40298L107.587 0.21613C108.092 0.760642 108.582 1.31608 109.056 1.88182L109.649 2.04071L109.483 2.39793C117.555 12.3267 120.966 25.299 118.729 37.9711C117.529 46.2805 114.251 54.1517 109.195 60.8579C107.641 62.9148 105.852 64.7588 103.875 66.3592C104.014 71.9119 103.125 77.5141 101.169 82.8766C97.3957 99.1889 87.9524 113.633 74.5138 123.649C68.5819 127.937 61.7067 130.747 54.4613 131.844C50.7253 132.042 47.0069 131.591 43.4643 130.536C44.0796 129.365 44.6272 128.155 45.1028 126.91C43.9798 126.846 42.864 126.715 41.7615 126.518ZM109.483 2.39793L108.817 3.82302C108.34 2.99351 107.824 2.18588 107.269 1.40298L109.056 1.88182C109.2 2.05292 109.342 2.22496 109.483 2.39793ZM99.052 66.9603C99.109 67.8122 99.1458 68.6646 99.1627 69.517C100.825 68.608 102.402 67.5512 103.875 66.3592C103.847 65.2541 103.779 64.1509 103.67 63.0519C102.718 64.0123 101.71 64.9222 100.649 65.7765C100.131 66.1935 99.5981 66.5882 99.052 66.9603ZM99.052 66.9603C98.7936 63.0985 98.1218 59.2491 97.0314 55.4786C94.9757 49.0262 90.1229 43.8336 83.8146 41.3366C78.2648 39.4322 72.1442 41.6951 69.1856 46.7452C66.1968 51.3437 66.1012 57.2438 68.9395 61.944C71.9616 67.0323 77.1571 70.4568 83.0317 71.2323C88.7248 71.6673 94.3723 70.1481 99.052 66.9603ZM41.7615 126.518C43.0397 122.797 43.5674 118.833 43.2825 114.856C44.009 109.693 42.0237 104.517 38.0265 101.151C35.7249 100.043 33.0729 99.9123 30.6754 100.788C28.278 101.663 26.3395 103.471 25.3022 105.798C24.59 109.141 25.1741 112.631 26.9369 115.565C28.1858 118.336 29.9735 120.833 32.1962 122.91C35.1493 124.698 38.3939 125.915 41.7615 126.518ZM117.939 3.444C119.232 3.89169 120.556 4.24631 121.9 4.50516L121.108 4.29293L117.939 3.444ZM117.939 3.444L117.543 3.33789C116.339 3.08503 115.149 2.7662 113.979 2.38285C112.821 1.96209 111.628 1.64254 110.415 1.4278C112.751 2.62775 115.316 3.31513 117.939 3.444Z" fill="#8082A5"/>
</svg>
