<?xml version="1.0" standalone="no"?>
<!DOCTYPE svg PUBLIC "-//W3C//DTD SVG 20010904//EN"
 "http://www.w3.org/TR/2001/REC-SVG-20010904/DTD/svg10.dtd">
<svg version="1.0" xmlns="http://www.w3.org/2000/svg"
 width="50.000000pt" height="50.000000pt" viewBox="0 0 50.000000 50.000000"
 preserveAspectRatio="xMidYMid meet">

<g transform="translate(0.000000,50.000000) scale(0.100000,-0.100000)"
fill="#EDEDED" stroke="none">
<path d="M155 456 c-60 -28 -87 -56 -114 -116 -25 -54 -26 -104 -6 -163 13
-39 13 -50 -1 -97 -8 -28 -13 -54 -11 -57 3 -2 30 2 61 10 47 13 61 13 93 1
57 -20 112 -17 168 10 60 28 87 56 114 116 27 60 26 123 -3 185 -28 60 -56 87
-116 114 -60 27 -123 26 -185 -3z m180 -15 c22 -10 55 -34 72 -54 142 -162
-26 -405 -230 -333 -28 10 -47 11 -78 4 -22 -6 -42 -8 -45 -5 -3 3 -1 22 5 43
8 30 7 48 -4 79 -63 177 112 343 280 266z"/>
<path d="M134 345 c-26 -39 -11 -86 44 -143 75 -76 168 -94 194 -36 11 23 9
29 -11 45 -25 21 -56 25 -66 9 -11 -17 -38 -11 -66 16 -23 22 -26 30 -17 49 7
17 6 30 -6 54 -20 38 -49 40 -72 6z m56 -21 c8 -19 7 -31 -1 -41 -15 -18 14
-59 60 -87 30 -17 33 -17 51 -1 15 13 22 14 40 5 26 -14 21 -32 -12 -44 -77
-27 -228 130 -176 182 18 18 27 15 38 -14z"/>
</g>
</svg>
