<svg width="48" height="48" viewBox="0 0 48 48" fill="none" xmlns="http://www.w3.org/2000/svg">
<path fill-rule="evenodd" clip-rule="evenodd" d="M16.3569 47.5051C16.0408 47.8219 15.6117 48 15.1642 48C14.7167 48 14.2876 47.8219 13.9715 47.5051L0.494907 34.0285C0.178066 33.7124 0 33.2833 0 32.8358C0 32.3883 0.178066 31.9592 0.494907 31.6431L6.90304 25.235L9.69607 14.073C10.1282 12.3439 11.4391 10.9703 13.1461 10.4579L48 0L37.5421 34.8573C37.0293 36.5621 35.6574 37.8714 33.9304 38.3039L22.7684 41.0936L16.3569 47.5051ZM22.4214 37.7076L33.1117 35.0358C33.689 34.8918 34.1475 34.4538 34.3179 33.8836L42.9766 5.02678L42.9729 5.02789L42.8856 5.31653L28.6408 22.7283C28.6408 24.5891 27.1324 26.0975 25.2717 26.0975C23.4109 26.0975 21.9025 24.5891 21.9025 22.7283C21.9025 20.8676 23.4109 19.3592 25.2717 19.3592L42.6828 5.1149L14.113 13.6855C13.5463 13.8572 13.1114 14.3139 12.9675 14.8883L10.2924 25.582L22.4214 37.711V37.7076Z" fill="white"/>
</svg>
