<svg width="119" height="150" viewBox="0 0 119 150" fill="none" xmlns="http://www.w3.org/2000/svg">
<path fill-rule="evenodd" clip-rule="evenodd" d="M87.7107 134.273C97.6774 127.849 107.644 121.424 117.683 115.113C118.573 114.55 119.271 115.99 118.419 116.558L118.229 116.685C114.596 119.103 110.968 121.518 107.314 123.903C94.2416 132.421 81.1702 140.942 68.0997 149.464C67.7079 149.653 67.2411 149.593 66.9105 149.31C66.58 149.028 66.4484 148.576 66.5755 148.16C67.5366 146.079 68.4839 143.991 69.4313 141.904C70.4988 139.551 71.5664 137.199 72.6537 134.856C79.4917 120.132 86.3288 105.409 93.165 90.6862C94.1899 90.2467 95.2162 89.8102 96.2441 89.3769L94.4741 87.867C94.0377 88.8067 93.6014 89.7465 93.165 90.6862C90.6781 91.7529 88.1999 92.838 85.7306 93.9416C73.4583 99.4342 61.4272 105.395 49.6371 111.825C49.0922 112.083 48.4427 111.954 48.0382 111.508C47.6337 111.061 47.5698 110.402 47.8809 109.886L54.2107 98.3618C61.0943 85.9159 67.9779 73.4721 74.8614 61.0302C75.9462 60.6734 77.0327 60.3223 78.121 59.9766L76.6396 57.8161C76.0469 58.8875 75.4542 59.9588 74.8614 61.0302C72.5756 61.7819 70.2974 62.5583 68.027 63.3593C56.3056 67.5086 44.8074 72.2637 33.579 77.6054C32.9826 77.8892 32.2709 77.7487 31.8277 77.2597C31.3844 76.7707 31.3145 76.0488 31.6557 75.4835C37.8322 65.2474 44.0072 55.0103 50.1807 44.772C51.5884 44.253 52.9894 43.7151 54.3833 43.1583L52.4458 41.0154C51.6908 42.2676 50.9358 43.5198 50.1807 44.772C43.0283 47.4089 35.7028 49.5557 28.2552 51.1969C27.6634 51.3048 27.0635 51.0552 26.7234 50.5594C26.3833 50.0636 26.3664 49.4142 26.6802 48.901C30.6932 43.8991 34.1329 38.4663 36.9365 32.7047C37.6854 32.743 38.4342 32.7814 39.1831 32.82L37.8223 30.8269C37.5345 31.4566 37.2392 32.0825 36.9365 32.7047C33.7981 32.5439 30.6598 32.3848 27.5215 32.2271L24.7283 32.0906C23.9394 32.1357 23.1481 32.0811 22.373 31.9281C21.5537 31.4328 20.8675 30.7457 20.3734 29.9261L18.834 28.0874C16.7224 25.5474 14.6679 22.9606 12.6707 20.3271C10.0881 16.9138 7.59516 13.4407 5.19183 9.90777C5.25074 10.6442 5.30614 11.3803 5.36153 12.1164C5.40418 12.6831 5.44682 13.2498 5.49108 13.8168C5.50675 14.027 5.5206 14.2378 5.53447 14.4488C5.56412 14.9 5.59384 15.3523 5.64155 15.802C5.79415 16.5329 5.71076 17.2868 5.4041 17.9488C5.20554 18.2586 4.85905 18.4329 4.49184 18.408C4.12464 18.383 3.79083 18.1623 3.61299 17.8269C3.26644 17.1392 3.11498 16.3712 3.17634 15.6126L3.05092 13.629C3.02453 13.2089 2.99754 12.7888 2.97054 12.3686C2.90553 11.3566 2.8405 10.3443 2.78378 9.33136L2.59461 6.01319C2.09462 5.24828 1.59873 4.48062 1.10694 3.71024C0.886075 3.26558 0.882868 2.74381 1.09826 2.29622C1.31364 1.84863 1.72352 1.52528 2.20906 1.41994C2.30221 1.39969 2.39545 1.3802 2.48878 1.3615C2.50359 1.16075 2.52128 0.960255 2.54187 0.760102L2.54737 0.764991C2.54306 0.835479 2.54734 0.907931 2.56107 0.981017C2.57326 1.10218 2.57922 1.22322 2.57908 1.34366C2.75039 1.31027 2.92197 1.27946 3.0938 1.25127L2.54737 0.764991C2.56991 0.396014 2.82767 0.0809236 3.19669 0.00923264C3.6362 -0.0761487 4.07404 0.214743 4.18468 0.665622C4.2195 0.809338 4.25286 0.953335 4.28477 1.09759C7.50853 0.793676 10.7681 1.3895 13.6928 2.83927C14.4354 3.32343 14.6514 4.31393 14.1779 5.06374C13.6807 5.78978 12.704 6.00349 11.9494 5.55139C9.8392 4.5528 7.52469 4.10231 5.21719 4.22317C5.03226 3.93847 4.8479 3.65338 4.66411 3.36792C4.69773 3.66337 4.72534 3.95937 4.74691 4.25573C4.9036 4.24224 5.06038 4.23138 5.21719 4.22317C10.8223 12.8519 16.9548 21.1272 23.5799 29.0018C23.3641 28.9903 23.1483 28.9788 22.9325 28.9671L23.9651 29.4585C23.8365 29.3065 23.7081 29.1542 23.5799 29.0018C27.8389 29.2288 32.0993 29.4306 36.3608 29.6325C37.361 29.6799 38.3613 29.7273 39.3616 29.775C39.8316 29.8067 40.2609 30.0521 40.5264 30.4409C40.7919 30.8298 40.8641 31.3189 40.7224 31.7681C38.2538 37.2454 35.2281 42.4506 31.6952 47.3022C30.3505 47.6305 29.0015 47.9416 27.6482 48.2353L29.2246 50.534C30.0736 49.4754 30.8973 48.3978 31.6952 47.3022C38.9526 45.5299 46.0797 43.2544 53.0246 40.4917C53.6262 40.209 54.3417 40.3522 54.7877 40.8444C55.2337 41.3367 55.3056 42.0625 54.9648 42.6331C48.87 52.7213 42.7749 62.8106 36.6794 72.9009C35.1913 73.5758 33.7085 74.2619 32.2317 74.9612L34.1521 77.0845C34.9946 75.69 35.837 74.2954 36.6794 72.9009C38.4406 72.1022 40.2092 71.3191 41.984 70.5484C53.606 65.497 65.4768 61.0385 77.5504 57.1902C78.1064 57.0945 78.667 57.3313 78.9858 57.7963C79.3045 58.2614 79.323 58.8695 79.0331 59.3534C76.9095 63.1864 74.785 67.0176 72.6595 70.8468C65.9447 82.9958 59.2075 95.1324 52.4479 107.257C51.0975 107.969 49.7504 108.687 48.4066 109.41L50.1657 111.348C50.9267 109.984 51.6874 108.621 52.4479 107.257C54.478 106.186 56.5157 105.129 58.5608 104.085C70.5328 97.9708 82.7132 92.3209 95.1019 87.1352C95.9891 86.7606 97.3791 87.5592 96.8704 88.6423L90.6712 101.909C83.8398 116.46 77.008 131.01 70.1759 145.559C69.1548 146.215 68.1338 146.871 67.1128 147.527L68.6398 148.83C69.1518 147.739 69.6638 146.649 70.1759 145.559C72.8827 143.819 75.5895 142.078 78.2964 140.336C81.4359 138.317 84.5733 136.295 87.7107 134.273Z" fill="#8082A5"/>
</svg>
