<svg width="22" height="20" viewBox="0 0 22 20" fill="none" xmlns="http://www.w3.org/2000/svg">
<path d="M19.5238 2.45457C18.4467 1.34265 16.9373 0.709981 15.356 0.707636C13.7733 0.709395 12.2624 1.34173 11.1836 2.45386L10.816 2.82698L10.4483 2.45386C8.30767 0.241198 4.70461 0.114128 2.40075 2.16998C2.29866 2.26112 2.20007 2.35577 2.10517 2.45386C-0.165632 4.80619 -0.165632 8.44162 2.10517 10.794L10.2757 19.069C10.5583 19.3556 11.0294 19.3679 11.3278 19.0964C11.3376 19.0875 11.3471 19.0784 11.3563 19.069L19.5238 10.794C21.7945 8.44187 21.7945 4.80665 19.5238 2.45457ZM18.4469 9.80969H18.4461L10.816 17.5386L3.1851 9.80969C1.45034 8.01229 1.45034 5.23481 3.1851 3.43741C4.76048 1.79757 7.4218 1.69475 9.12926 3.20773C9.21216 3.28119 9.29192 3.35779 9.36841 3.43741L10.2757 4.35663C10.5746 4.64193 11.0573 4.64193 11.3563 4.35663L12.2636 3.43812C13.8389 1.79828 16.5003 1.69546 18.2077 3.20844C18.2906 3.2819 18.3704 3.35851 18.4469 3.43812C20.1967 5.23837 20.2095 8.02092 18.4469 9.80969Z" fill="#4152CA"/>
</svg>
