<svg width="19" height="20" viewBox="0 0 19 20" fill="none" xmlns="http://www.w3.org/2000/svg">
<path d="M18.3835 1.98265L10.6059 18.952C10.5408 19.0942 10.4305 19.2107 10.2921 19.2835C10.1537 19.3562 9.99514 19.3811 9.84115 19.3541C9.68715 19.3272 9.54643 19.25 9.44099 19.1346C9.33555 19.0191 9.27134 18.872 9.2584 18.7162L8.60083 10.8278L0.71241 10.1702C0.556612 10.1573 0.409496 10.0931 0.294071 9.98763C0.178646 9.88219 0.101421 9.74147 0.0744729 9.58747C0.047525 9.43348 0.0723742 9.27489 0.145134 9.13652C0.217894 8.99815 0.334462 8.8878 0.476607 8.82272L17.446 1.04509C17.5772 0.98497 17.7236 0.966429 17.8656 0.991956C18.0077 1.01748 18.1385 1.08586 18.2405 1.1879C18.3426 1.28994 18.4109 1.42075 18.4365 1.56278C18.462 1.70481 18.4434 1.85125 18.3833 1.98243L18.3835 1.98265Z" fill="#080809"/>
</svg>
